<svg width="276" height="52" viewBox="0 0 276 52" fill="none" xmlns="http://www.w3.org/2000/svg">
<g clip-path="url(#clip0_509_200)">
<path d="M8.58334 2.02336L10.16 5.16669C10.2085 5.26274 10.2802 5.34511 10.3687 5.40625C10.4573 5.4674 10.5597 5.50537 10.6667 5.51669L14.1867 6.02003C14.3059 6.03561 14.4183 6.08448 14.5111 6.16102C14.6038 6.23756 14.6731 6.33868 14.7111 6.4528C14.749 6.56692 14.754 6.68941 14.7255 6.80624C14.697 6.92307 14.6362 7.02951 14.55 7.11336L12 9.56003C11.9245 9.63239 11.8679 9.72225 11.8353 9.82167C11.8028 9.92109 11.7952 10.027 11.8133 10.13L12.4133 13.5834C12.4311 13.7018 12.4156 13.8229 12.3686 13.933C12.3215 14.0432 12.2448 14.1381 12.147 14.2073C12.0492 14.2764 11.9341 14.317 11.8146 14.3245C11.695 14.3321 11.5757 14.3063 11.47 14.25L8.32 12.62C8.22609 12.572 8.12213 12.547 8.01667 12.547C7.91121 12.547 7.80725 12.572 7.71334 12.62L4.56334 14.25C4.4576 14.3063 4.33831 14.3321 4.21877 14.3245C4.09923 14.317 3.98414 14.2764 3.88632 14.2073C3.7885 14.1381 3.71181 14.0432 3.66478 13.933C3.61776 13.8229 3.60226 13.7018 3.62 13.5834L4.22 10.13C4.23811 10.027 4.23055 9.92109 4.198 9.82167C4.16544 9.72225 4.10889 9.63239 4.03334 9.56003L1.46667 7.11336C1.38048 7.02951 1.31965 6.92307 1.29117 6.80624C1.26268 6.68941 1.26768 6.56692 1.30561 6.4528C1.34353 6.33868 1.41284 6.23756 1.50558 6.16102C1.59833 6.08448 1.71076 6.03561 1.83 6.02003L5.35 5.51669C5.45403 5.50275 5.55307 5.46357 5.63848 5.40256C5.72389 5.34156 5.79308 5.26058 5.84 5.16669L7.41667 2.02336C7.47432 1.91916 7.55883 1.8323 7.66142 1.77182C7.764 1.71134 7.88092 1.67944 8 1.67944C8.11909 1.67944 8.236 1.71134 8.33859 1.77182C8.44117 1.8323 8.52568 1.91916 8.58334 2.02336V2.02336Z" fill="#121212"/>
</g>
<g clip-path="url(#clip1_509_200)">
<path d="M24.5833 2.02336L26.16 5.16669C26.2085 5.26274 26.2802 5.34511 26.3687 5.40625C26.4573 5.4674 26.5597 5.50537 26.6667 5.51669L30.1867 6.02003C30.3059 6.03561 30.4183 6.08448 30.5111 6.16102C30.6038 6.23756 30.6731 6.33868 30.7111 6.4528C30.749 6.56692 30.754 6.68941 30.7255 6.80624C30.697 6.92307 30.6362 7.02951 30.55 7.11336L28 9.56003C27.9245 9.63239 27.8679 9.72225 27.8353 9.82167C27.8028 9.92109 27.7952 10.027 27.8133 10.13L28.4133 13.5834C28.4311 13.7018 28.4156 13.8229 28.3686 13.933C28.3215 14.0432 28.2448 14.1381 28.147 14.2073C28.0492 14.2764 27.9341 14.317 27.8146 14.3245C27.695 14.3321 27.5757 14.3063 27.47 14.25L24.32 12.62C24.2261 12.572 24.1221 12.547 24.0167 12.547C23.9112 12.547 23.8072 12.572 23.7133 12.62L20.5633 14.25C20.4576 14.3063 20.3383 14.3321 20.2188 14.3245C20.0992 14.317 19.9841 14.2764 19.8863 14.2073C19.7885 14.1381 19.7118 14.0432 19.6648 13.933C19.6178 13.8229 19.6023 13.7018 19.62 13.5834L20.22 10.13C20.2381 10.027 20.2306 9.92109 20.198 9.82167C20.1654 9.72225 20.1089 9.63239 20.0333 9.56003L17.4667 7.11336C17.3805 7.02951 17.3197 6.92307 17.2912 6.80624C17.2627 6.68941 17.2677 6.56692 17.3056 6.4528C17.3435 6.33868 17.4128 6.23756 17.5056 6.16102C17.5983 6.08448 17.7108 6.03561 17.83 6.02003L21.35 5.51669C21.454 5.50275 21.5531 5.46357 21.6385 5.40256C21.7239 5.34156 21.7931 5.26058 21.84 5.16669L23.4167 2.02336C23.4743 1.91916 23.5588 1.8323 23.6614 1.77182C23.764 1.71134 23.8809 1.67944 24 1.67944C24.1191 1.67944 24.236 1.71134 24.3386 1.77182C24.4412 1.8323 24.5257 1.91916 24.5833 2.02336V2.02336Z" fill="#121212"/>
</g>
<g clip-path="url(#clip2_509_200)">
<path d="M40.5833 2.02336L42.16 5.16669C42.2085 5.26274 42.2802 5.34511 42.3687 5.40625C42.4573 5.4674 42.5597 5.50537 42.6667 5.51669L46.1867 6.02003C46.3059 6.03561 46.4183 6.08448 46.5111 6.16102C46.6038 6.23756 46.6731 6.33868 46.7111 6.4528C46.749 6.56692 46.754 6.68941 46.7255 6.80624C46.697 6.92307 46.6362 7.02951 46.55 7.11336L44 9.56003C43.9245 9.63239 43.8679 9.72225 43.8353 9.82167C43.8028 9.92109 43.7952 10.027 43.8133 10.13L44.4133 13.5834C44.4311 13.7018 44.4156 13.8229 44.3686 13.933C44.3215 14.0432 44.2448 14.1381 44.147 14.2073C44.0492 14.2764 43.9341 14.317 43.8146 14.3245C43.695 14.3321 43.5757 14.3063 43.47 14.25L40.32 12.62C40.2261 12.572 40.1221 12.547 40.0167 12.547C39.9112 12.547 39.8072 12.572 39.7133 12.62L36.5633 14.25C36.4576 14.3063 36.3383 14.3321 36.2188 14.3245C36.0992 14.317 35.9841 14.2764 35.8863 14.2073C35.7885 14.1381 35.7118 14.0432 35.6648 13.933C35.6178 13.8229 35.6023 13.7018 35.62 13.5834L36.22 10.13C36.2381 10.027 36.2306 9.92109 36.198 9.82167C36.1654 9.72225 36.1089 9.63239 36.0333 9.56003L33.4667 7.11336C33.3805 7.02951 33.3197 6.92307 33.2912 6.80624C33.2627 6.68941 33.2677 6.56692 33.3056 6.4528C33.3435 6.33868 33.4128 6.23756 33.5056 6.16102C33.5983 6.08448 33.7108 6.03561 33.83 6.02003L37.35 5.51669C37.454 5.50275 37.5531 5.46357 37.6385 5.40256C37.7239 5.34156 37.7931 5.26058 37.84 5.16669L39.4167 2.02336C39.4743 1.91916 39.5588 1.8323 39.6614 1.77182C39.764 1.71134 39.8809 1.67944 40 1.67944C40.1191 1.67944 40.236 1.71134 40.3386 1.77182C40.4412 1.8323 40.5257 1.91916 40.5833 2.02336V2.02336Z" fill="#121212"/>
</g>
<g clip-path="url(#clip3_509_200)">
<path d="M56.5833 2.02336L58.16 5.16669C58.2085 5.26274 58.2802 5.34511 58.3687 5.40625C58.4573 5.4674 58.5597 5.50537 58.6667 5.51669L62.1867 6.02003C62.3059 6.03561 62.4183 6.08448 62.5111 6.16102C62.6038 6.23756 62.6731 6.33868 62.7111 6.4528C62.749 6.56692 62.754 6.68941 62.7255 6.80624C62.697 6.92307 62.6362 7.02951 62.55 7.11336L60 9.56003C59.9245 9.63239 59.8679 9.72225 59.8353 9.82167C59.8028 9.92109 59.7952 10.027 59.8133 10.13L60.4133 13.5834C60.4311 13.7018 60.4156 13.8229 60.3686 13.933C60.3215 14.0432 60.2448 14.1381 60.147 14.2073C60.0492 14.2764 59.9341 14.317 59.8146 14.3245C59.695 14.3321 59.5757 14.3063 59.47 14.25L56.32 12.62C56.2261 12.572 56.1221 12.547 56.0167 12.547C55.9112 12.547 55.8072 12.572 55.7133 12.62L52.5633 14.25C52.4576 14.3063 52.3383 14.3321 52.2188 14.3245C52.0992 14.317 51.9841 14.2764 51.8863 14.2073C51.7885 14.1381 51.7118 14.0432 51.6648 13.933C51.6178 13.8229 51.6023 13.7018 51.62 13.5834L52.22 10.13C52.2381 10.027 52.2306 9.92109 52.198 9.82167C52.1654 9.72225 52.1089 9.63239 52.0333 9.56003L49.4667 7.11336C49.3805 7.02951 49.3197 6.92307 49.2912 6.80624C49.2627 6.68941 49.2677 6.56692 49.3056 6.4528C49.3435 6.33868 49.4128 6.23756 49.5056 6.16102C49.5983 6.08448 49.7108 6.03561 49.83 6.02003L53.35 5.51669C53.454 5.50275 53.5531 5.46357 53.6385 5.40256C53.7239 5.34156 53.7931 5.26058 53.84 5.16669L55.4167 2.02336C55.4743 1.91916 55.5588 1.8323 55.6614 1.77182C55.764 1.71134 55.8809 1.67944 56 1.67944C56.1191 1.67944 56.236 1.71134 56.3386 1.77182C56.4412 1.8323 56.5257 1.91916 56.5833 2.02336V2.02336Z" fill="#121212"/>
</g>
<g clip-path="url(#clip4_509_200)">
<path d="M68.4633 14.3333C68.262 14.3324 68.0661 14.2683 67.9033 14.15C67.7611 14.0472 67.6509 13.9062 67.5855 13.7434C67.52 13.5806 67.5019 13.4026 67.5333 13.23L68.1 9.96C68.107 9.91651 68.1033 9.87197 68.0894 9.83019C68.0755 9.7884 68.0517 9.7506 68.02 9.72L65.62 7.38666C65.4943 7.26408 65.4055 7.10876 65.3636 6.9383C65.3217 6.76784 65.3284 6.58905 65.3828 6.42218C65.4373 6.25531 65.5374 6.10702 65.6718 5.99412C65.8062 5.88121 65.9695 5.80819 66.1433 5.78333L69.4766 5.30333C69.5165 5.29604 69.5541 5.28 69.587 5.25636C69.6199 5.23273 69.6471 5.20209 69.6666 5.16666L71.15 2.19C71.2286 2.03278 71.3495 1.90056 71.499 1.80816C71.6485 1.71575 71.8209 1.66681 71.9966 1.66681C72.1724 1.66681 72.3447 1.71575 72.4943 1.80816C72.6438 1.90056 72.7647 2.03278 72.8433 2.19L74.3333 5.16666C74.3532 5.20703 74.3829 5.24184 74.4195 5.26801C74.4561 5.29418 74.4987 5.31089 74.5433 5.31666L77.8766 5.79666C78.0504 5.82152 78.2137 5.89454 78.3481 6.00745C78.4826 6.12036 78.5827 6.26864 78.6371 6.43552C78.6916 6.60239 78.6982 6.78118 78.6563 6.95164C78.6144 7.12209 78.5256 7.27741 78.4 7.4L76 9.73333C75.9683 9.76393 75.9445 9.80173 75.9305 9.84352C75.9166 9.88531 75.913 9.92984 75.92 9.97333L76.4866 13.2433C76.518 13.416 76.5 13.594 76.4345 13.7568C76.369 13.9196 76.2588 14.0605 76.1166 14.1633C75.9737 14.2683 75.8041 14.3309 75.6272 14.3439C75.4503 14.3568 75.2734 14.3197 75.1166 14.2367L72.13 12.6667C72.09 12.6454 72.0453 12.6342 72 12.6342C71.9546 12.6342 71.91 12.6454 71.87 12.6667L68.9033 14.21C68.7689 14.2864 68.6178 14.3288 68.4633 14.3333V14.3333ZM72 2.33333C71.9479 2.33166 71.8964 2.34529 71.852 2.37254C71.8076 2.3998 71.7721 2.43947 71.75 2.48666L70.2666 5.46333C70.1986 5.60054 70.098 5.71903 69.9737 5.8085C69.8493 5.89796 69.705 5.95569 69.5533 5.97666L66.24 6.45667C66.189 6.46313 66.1408 6.48383 66.1011 6.51641C66.0613 6.54899 66.0316 6.59211 66.0152 6.64084C65.9989 6.68957 65.9966 6.74192 66.0086 6.79188C66.0207 6.84185 66.0465 6.88741 66.0833 6.92333L68.4833 9.25667C68.5934 9.36272 68.6759 9.49411 68.7235 9.63936C68.7712 9.78462 68.7825 9.93934 68.7566 10.09L68.19 13.3333C68.1807 13.3828 68.1858 13.4339 68.2047 13.4806C68.2237 13.5273 68.2555 13.5676 68.2966 13.5967C68.3391 13.6291 68.39 13.6485 68.4432 13.6527C68.4964 13.6568 68.5497 13.6455 68.5966 13.62L71.56 12.0767C71.6959 12.006 71.8468 11.9691 72 11.9691C72.1532 11.9691 72.3041 12.006 72.44 12.0767L75.4033 13.62C75.4502 13.6455 75.5035 13.6568 75.5568 13.6527C75.61 13.6485 75.6609 13.6291 75.7033 13.5967C75.7444 13.5676 75.7763 13.5273 75.7952 13.4806C75.8141 13.4339 75.8192 13.3828 75.81 13.3333L75.2433 10.06C75.2174 9.90934 75.2288 9.75462 75.2764 9.60937C75.3241 9.46411 75.4065 9.33272 75.5166 9.22667L77.9166 6.91C77.9534 6.87408 77.9793 6.82852 77.9913 6.77855C78.0034 6.72858 78.0011 6.67623 77.9847 6.62751C77.9684 6.57878 77.9386 6.53565 77.8989 6.50308C77.8591 6.4705 77.811 6.44979 77.76 6.44333L74.4466 5.96333C74.2949 5.94236 74.1506 5.88463 74.0263 5.79516C73.902 5.7057 73.8014 5.5872 73.7333 5.45L72.25 2.48666C72.2278 2.43947 72.1924 2.3998 72.1479 2.37254C72.1035 2.34529 72.0521 2.33166 72 2.33333V2.33333Z" fill="#121212"/>
</g>
<path d="M84.79 12.0114V10.7685L89.1899 3.81818H90.1693V5.64773H89.5479L86.4008 10.6293V10.7088H92.4314V12.0114H84.79ZM89.6175 14V11.6335L89.6274 11.0668V3.81818H91.0841V14H89.6175ZM94.7805 14.0945C94.5087 14.0945 94.275 13.9983 94.0795 13.8061C93.8839 13.6106 93.7861 13.3752 93.7861 13.1001C93.7861 12.8284 93.8839 12.5964 94.0795 12.4041C94.275 12.2086 94.5087 12.1108 94.7805 12.1108C95.0522 12.1108 95.2859 12.2086 95.4814 12.4041C95.677 12.5964 95.7748 12.8284 95.7748 13.1001C95.7748 13.2824 95.7284 13.4498 95.6356 13.6023C95.5461 13.7514 95.4268 13.8707 95.2776 13.9602C95.1285 14.0497 94.9627 14.0945 94.7805 14.0945ZM100.378 3.81818V14H98.8373V5.35938H98.7776L96.3415 6.95028V5.47869L98.882 3.81818H100.378ZM107.03 3.34091L103.749 15.5312H102.422L105.703 3.34091H107.03ZM111.634 14.1392C111.011 14.1392 110.451 14.0199 109.954 13.7812C109.46 13.5393 109.065 13.2079 108.771 12.7869C108.476 12.366 108.318 11.8854 108.298 11.3452H109.79C109.826 11.7827 110.02 12.1423 110.371 12.424C110.723 12.7057 111.144 12.8466 111.634 12.8466C112.025 12.8466 112.372 12.7571 112.673 12.5781C112.978 12.3958 113.217 12.1456 113.389 11.8274C113.565 11.5092 113.653 11.1463 113.653 10.7386C113.653 10.3243 113.563 9.95478 113.384 9.62997C113.205 9.30516 112.958 9.04995 112.643 8.86435C112.332 8.67874 111.974 8.58428 111.57 8.58097C111.261 8.58097 110.951 8.634 110.64 8.74006C110.328 8.84612 110.076 8.98532 109.884 9.15767L108.477 8.94886L109.049 3.81818H114.647V5.13565H110.327L110.003 7.98438H110.063C110.262 7.79214 110.525 7.63139 110.854 7.50213C111.185 7.37287 111.54 7.30824 111.918 7.30824C112.537 7.30824 113.089 7.45573 113.573 7.75071C114.06 8.04569 114.443 8.44839 114.722 8.95881C115.003 9.46591 115.142 10.0492 115.139 10.7088C115.142 11.3684 114.993 11.9567 114.692 12.4737C114.393 12.9908 113.979 13.3984 113.449 13.6967C112.922 13.9917 112.317 14.1392 111.634 14.1392Z" fill="#121212"/>
<path d="M126.278 9.27273C126.278 8.11553 126.43 7.05066 126.735 6.07812C127.039 5.10559 127.484 4.20845 128.069 3.38672H129.334C129.106 3.69141 128.894 4.06534 128.697 4.50852C128.5 4.9517 128.327 5.43797 128.18 5.96733C128.032 6.49361 127.917 7.03989 127.833 7.60618C127.75 8.16939 127.709 8.72491 127.709 9.27273C127.709 10.0052 127.781 10.7469 127.926 11.4979C128.07 12.2488 128.266 12.9459 128.512 13.5891C128.758 14.2324 129.032 14.7571 129.334 15.1634H128.069C127.484 14.3416 127.039 13.4445 126.735 12.4719C126.43 11.4994 126.278 10.433 126.278 9.27273ZM134.062 14.1293C133.428 14.1293 132.862 14.02 132.363 13.8015C131.868 13.583 131.475 13.2798 131.186 12.892C130.9 12.5012 130.746 12.0488 130.725 11.5348H132.174C132.193 11.8149 132.286 12.058 132.456 12.2642C132.628 12.4673 132.853 12.6243 133.13 12.7351C133.407 12.8459 133.714 12.9013 134.053 12.9013C134.425 12.9013 134.755 12.8366 135.041 12.7074C135.33 12.5781 135.556 12.3981 135.72 12.1673C135.883 11.9334 135.964 11.6641 135.964 11.3594C135.964 11.0424 135.883 10.7638 135.72 10.5238C135.56 10.2807 135.324 10.0898 135.013 9.95135C134.705 9.81286 134.333 9.74361 133.896 9.74361H133.097V8.58026H133.896C134.247 8.58026 134.555 8.51716 134.819 8.39098C135.087 8.2648 135.296 8.08937 135.447 7.8647C135.598 7.63696 135.673 7.37074 135.673 7.06605C135.673 6.77367 135.607 6.51977 135.475 6.30433C135.346 6.08582 135.161 5.91501 134.921 5.7919C134.684 5.6688 134.404 5.60724 134.081 5.60724C133.773 5.60724 133.485 5.66418 133.217 5.77805C132.953 5.88885 132.737 6.04889 132.571 6.25817C132.405 6.46437 132.316 6.71212 132.303 7.00142H130.923C130.938 6.49053 131.089 6.04119 131.375 5.65341C131.665 5.26562 132.046 4.96248 132.52 4.74396C132.994 4.52545 133.521 4.41619 134.099 4.41619C134.705 4.41619 135.229 4.53468 135.669 4.77166C136.112 5.00556 136.454 5.31794 136.694 5.70881C136.937 6.09967 137.057 6.52746 137.054 6.99219C137.057 7.52154 136.909 7.97088 136.611 8.3402C136.315 8.70952 135.921 8.95727 135.429 9.08345V9.15732C136.057 9.25272 136.543 9.50201 136.888 9.90518C137.235 10.3084 137.408 10.8085 137.405 11.4055C137.408 11.9257 137.263 12.3919 136.971 12.8043C136.681 13.2167 136.286 13.5414 135.784 13.7784C135.283 14.0123 134.709 14.1293 134.062 14.1293ZM142.27 14.1293C141.692 14.1293 141.172 14.0185 140.71 13.7969C140.251 13.5722 139.885 13.2644 139.611 12.8736C139.337 12.4827 139.191 12.0365 139.173 11.5348H140.558C140.591 11.9411 140.772 12.275 141.098 12.5366C141.424 12.7982 141.815 12.929 142.27 12.929C142.633 12.929 142.955 12.8459 143.235 12.6797C143.518 12.5104 143.74 12.2781 143.9 11.9826C144.063 11.6871 144.145 11.3501 144.145 10.9716C144.145 10.5869 144.062 10.2437 143.895 9.94212C143.729 9.64051 143.5 9.40353 143.207 9.23118C142.918 9.05883 142.586 8.97112 142.21 8.96804C141.924 8.96804 141.636 9.01728 141.347 9.11577C141.058 9.21425 140.824 9.34351 140.645 9.50355L139.339 9.30966L139.87 4.54545H145.068V5.76882H141.056L140.756 8.41406H140.812C140.996 8.23556 141.241 8.08629 141.546 7.96626C141.853 7.84624 142.183 7.78622 142.533 7.78622C143.109 7.78622 143.621 7.92318 144.071 8.19709C144.523 8.471 144.879 8.84493 145.137 9.31889C145.399 9.78977 145.528 10.3314 145.525 10.9439C145.528 11.5563 145.39 12.1026 145.109 12.5827C144.832 13.0629 144.448 13.4414 143.955 13.7184C143.466 13.9923 142.904 14.1293 142.27 14.1293ZM150.798 4.54545V14H149.367V5.97656H149.312L147.05 7.45384V6.08736L149.409 4.54545H150.798ZM156.815 14V6.90909H158.149V8.03551H158.223C158.352 7.65388 158.58 7.35381 158.906 7.1353C159.235 6.91371 159.608 6.80291 160.023 6.80291C160.109 6.80291 160.211 6.80599 160.328 6.81214C160.448 6.8183 160.542 6.82599 160.609 6.83523V8.15554C160.554 8.14015 160.455 8.12322 160.314 8.10476C160.172 8.08321 160.031 8.07244 159.889 8.07244C159.563 8.07244 159.272 8.14169 159.017 8.28018C158.764 8.4156 158.564 8.60488 158.416 8.84801C158.269 9.08807 158.195 9.36198 158.195 9.66974V14H156.815ZM164.606 14.1431C163.907 14.1431 163.306 13.9938 162.801 13.6953C162.299 13.3937 161.912 12.9705 161.638 12.4258C161.367 11.878 161.231 11.2363 161.231 10.5007C161.231 9.77438 161.367 9.13423 161.638 8.58026C161.912 8.02628 162.293 7.59387 162.782 7.28303C163.275 6.97218 163.85 6.81676 164.509 6.81676C164.909 6.81676 165.297 6.88293 165.672 7.01527C166.048 7.14761 166.385 7.35535 166.683 7.63849C166.982 7.92164 167.217 8.28942 167.39 8.74183C167.562 9.19117 167.648 9.73745 167.648 10.3807V10.87H162.012V9.83594H166.296C166.296 9.47277 166.222 9.15116 166.074 8.87109C165.926 8.58795 165.719 8.36482 165.451 8.2017C165.186 8.03859 164.875 7.95703 164.518 7.95703C164.13 7.95703 163.792 8.05244 163.503 8.24325C163.216 8.43099 162.995 8.6772 162.838 8.98189C162.684 9.2835 162.607 9.61127 162.607 9.9652V10.7731C162.607 11.247 162.69 11.6502 162.856 11.9826C163.026 12.315 163.261 12.5689 163.563 12.7443C163.864 12.9167 164.217 13.0028 164.62 13.0028C164.881 13.0028 165.12 12.9659 165.335 12.892C165.551 12.8151 165.737 12.7012 165.894 12.5504C166.051 12.3996 166.171 12.2134 166.254 11.9918L167.561 12.2273C167.456 12.612 167.268 12.949 166.997 13.2383C166.73 13.5245 166.393 13.7476 165.986 13.9077C165.583 14.0646 165.123 14.1431 164.606 14.1431ZM175.043 6.90909L172.471 14H170.994L168.418 6.90909H169.9L171.696 12.3658H171.77L173.561 6.90909H175.043ZM176.34 14V6.90909H177.72V14H176.34ZM177.037 5.81499C176.797 5.81499 176.591 5.73497 176.418 5.57493C176.249 5.41181 176.164 5.21792 176.164 4.99325C176.164 4.76551 176.249 4.57161 176.418 4.41158C176.591 4.24846 176.797 4.1669 177.037 4.1669C177.277 4.1669 177.482 4.24846 177.651 4.41158C177.823 4.57161 177.91 4.76551 177.91 4.99325C177.91 5.21792 177.823 5.41181 177.651 5.57493C177.482 5.73497 177.277 5.81499 177.037 5.81499ZM182.633 14.1431C181.935 14.1431 181.333 13.9938 180.828 13.6953C180.327 13.3937 179.939 12.9705 179.665 12.4258C179.394 11.878 179.259 11.2363 179.259 10.5007C179.259 9.77438 179.394 9.13423 179.665 8.58026C179.939 8.02628 180.32 7.59387 180.81 7.28303C181.302 6.97218 181.878 6.81676 182.536 6.81676C182.936 6.81676 183.324 6.88293 183.7 7.01527C184.075 7.14761 184.412 7.35535 184.711 7.63849C185.009 7.92164 185.245 8.28942 185.417 8.74183C185.589 9.19117 185.676 9.73745 185.676 10.3807V10.87H180.039V9.83594H184.323C184.323 9.47277 184.249 9.15116 184.101 8.87109C183.954 8.58795 183.746 8.36482 183.478 8.2017C183.213 8.03859 182.903 7.95703 182.546 7.95703C182.158 7.95703 181.819 8.05244 181.53 8.24325C181.244 8.43099 181.022 8.6772 180.865 8.98189C180.711 9.2835 180.634 9.61127 180.634 9.9652V10.7731C180.634 11.247 180.717 11.6502 180.884 11.9826C181.053 12.315 181.288 12.5689 181.59 12.7443C181.892 12.9167 182.244 13.0028 182.647 13.0028C182.909 13.0028 183.147 12.9659 183.363 12.892C183.578 12.8151 183.764 12.7012 183.921 12.5504C184.078 12.3996 184.198 12.2134 184.281 11.9918L185.588 12.2273C185.483 12.612 185.296 12.949 185.025 13.2383C184.757 13.5245 184.42 13.7476 184.014 13.9077C183.61 14.0646 183.15 14.1431 182.633 14.1431ZM188.732 14L186.645 6.90909H188.072L189.461 12.1165H189.53L190.925 6.90909H192.351L193.736 12.0934H193.805L195.186 6.90909H196.612L194.53 14H193.122L191.682 8.88033H191.575L190.135 14H188.732ZM203.236 8.64027L201.984 8.86186C201.932 8.70182 201.849 8.54948 201.735 8.40483C201.624 8.26018 201.474 8.14169 201.283 8.04936C201.092 7.95703 200.853 7.91087 200.567 7.91087C200.176 7.91087 199.85 7.99858 199.589 8.17401C199.327 8.34635 199.196 8.56948 199.196 8.84339C199.196 9.08037 199.284 9.27119 199.459 9.41584C199.635 9.56049 199.918 9.67898 200.309 9.77131L201.435 10.0298C202.088 10.1806 202.574 10.413 202.894 10.7269C203.214 11.0408 203.374 11.4486 203.374 11.9503C203.374 12.375 203.251 12.7536 203.005 13.0859C202.762 13.4152 202.421 13.6738 201.984 13.8615C201.551 14.0492 201.047 14.1431 200.475 14.1431C199.681 14.1431 199.033 13.9738 198.531 13.6353C198.03 13.2937 197.722 12.8089 197.608 12.1811L198.942 11.978C199.025 12.3258 199.196 12.5889 199.455 12.7674C199.713 12.9428 200.05 13.0305 200.466 13.0305C200.918 13.0305 201.28 12.9367 201.551 12.7489C201.821 12.5581 201.957 12.3258 201.957 12.0518C201.957 11.8303 201.874 11.6441 201.707 11.4933C201.544 11.3424 201.294 11.2286 200.955 11.1516L199.755 10.8885C199.093 10.7377 198.604 10.4976 198.287 10.1683C197.973 9.83901 197.816 9.42199 197.816 8.91726C197.816 8.4987 197.933 8.13246 198.167 7.81854C198.401 7.50462 198.724 7.25994 199.136 7.08452C199.548 6.90601 200.021 6.81676 200.553 6.81676C201.32 6.81676 201.923 6.98295 202.363 7.31534C202.803 7.64465 203.094 8.08629 203.236 8.64027ZM207.546 10.076C207.546 11.2363 207.394 12.3027 207.089 13.2752C206.784 14.2478 206.34 15.1449 205.755 15.9666H204.49C204.718 15.6619 204.93 15.288 205.127 14.8448C205.324 14.4016 205.496 13.9169 205.644 13.3906C205.792 12.8613 205.907 12.3134 205.99 11.7472C206.073 11.1809 206.115 10.6238 206.115 10.076C206.115 9.34659 206.043 8.60642 205.898 7.85547C205.753 7.10452 205.558 6.40743 205.312 5.7642C205.066 5.12098 204.792 4.59624 204.49 4.18999H205.755C206.34 5.01172 206.784 5.90885 207.089 6.88139C207.394 7.85393 207.546 8.9188 207.546 10.076Z" fill="#121212"/>
<path d="M124.948 16.5852H208.876V17.4716H124.948V16.5852Z" fill="#121212"/>
<g clip-path="url(#clip5_509_200)">
<path d="M33 22.5H3C1.61929 22.5 0.5 23.6193 0.5 25V39C0.5 40.3807 1.61929 41.5 3 41.5H33C34.3807 41.5 35.5 40.3807 35.5 39V25C35.5 23.6193 34.3807 22.5 33 22.5Z" fill="white" stroke="#F2F2F2"/>
<path fill-rule="evenodd" clip-rule="evenodd" d="M7.12 31.2C6.42 31.2 5.62 31.55 5.17 31.92L5.57 32.82C5.93 32.48 6.5 32.19 7.01 32.19C7.51 32.19 7.77 32.36 7.77 32.71C7.77 32.94 7.59 33.06 7.25 33.11C6 33.28 5 33.65 5 34.68C5 35.5 5.55 36 6.4 36C7.02 36 7.56 35.64 7.82 35.16V35.86H8.96V32.91C8.96 31.69 8.16 31.2 7.12 31.2V31.2ZM6.7 35.05C6.37 35.05 6.21 34.89 6.21 34.61C6.21 34.1 6.75 33.93 7.74 33.81C7.74 34.5 7.3 35.05 6.7 35.05ZM19.7 32.09V31.33H18.56V35.87H19.78V33.68C19.78 32.64 20.38 32.34 20.78 32.34C20.9691 32.3363 21.1545 32.3923 21.31 32.5L21.53 31.3C21.3561 31.2272 21.1684 31.193 20.98 31.2C20.36 31.2 19.96 31.5 19.7 32.1V32.09ZM27.19 31.19C26.54 31.19 26.06 31.61 25.81 31.99C25.6926 31.7419 25.5049 31.5339 25.2702 31.3916C25.0355 31.2494 24.7642 31.1793 24.49 31.19C23.84 31.19 23.39 31.58 23.19 32.02V31.33H22V35.87H23.22V33.53C23.22 32.69 23.64 32.29 24.02 32.29C24.37 32.29 24.69 32.53 24.69 33.15V35.87H25.91V33.53C25.91 32.68 26.31 32.29 26.71 32.29C27.04 32.29 27.38 32.54 27.38 33.14V35.87H28.6V32.73C28.6 31.71 27.96 31.2 27.18 31.2L27.19 31.19ZM13.27 31V31.34H11.42V30.88C11.42 30.28 11.74 30.11 12.02 30.11C12.18 30.11 12.39 30.15 12.56 30.25L12.94 29.34C12.6145 29.1544 12.2446 29.061 11.87 29.07C11.09 29.07 10.2 29.54 10.2 31.01V31.35H9.5V32.35H10.2V35.88H11.42V32.34H13.27V35.88H14.49V32.34H15.59V31.34H14.49V30.88C14.49 30.28 14.81 30.11 15.09 30.11C15.4 30.11 15.64 30.25 15.64 30.25L16.01 29.34C16.01 29.34 15.63 29.07 14.94 29.07C14.16 29.07 13.27 29.54 13.27 31V31ZM16.32 31.34H17.54V35.88H16.32V31.34Z" fill="#060809"/>
<path fill-rule="evenodd" clip-rule="evenodd" d="M23.4301 25C21.8107 25.04 20.2478 25.6033 18.9752 26.6055C17.7026 27.6078 16.7886 28.9951 16.3701 30.56H17.5701C17.9673 29.3103 18.7462 28.2166 19.7974 27.4327C20.8486 26.6488 22.1191 26.2142 23.4301 26.19C26.8501 26.19 29.7901 28.95 29.7901 33.26C29.7901 34.23 29.6801 35.1 29.4501 35.86H30.6101L30.6201 35.83C30.8175 34.9877 30.9148 34.1251 30.9101 33.26C30.9101 28.46 27.6201 25 23.4301 25V25Z" fill="#0FA0EA"/>
</g>
<path d="M42.093 26.8182V37H41.4716V26.8182H42.093ZM45.4327 32.0483V37H44.8262V29.3636H45.4178V30.5717H45.4775C45.6564 30.1773 45.9431 29.8608 46.3375 29.6222C46.7319 29.3835 47.2009 29.2642 47.7445 29.2642C48.2582 29.2642 48.709 29.3736 49.0968 29.5923C49.4879 29.8111 49.7928 30.1226 50.0115 30.527C50.2336 30.928 50.3446 31.407 50.3446 31.9638V37H49.7381V31.9886C49.7381 31.339 49.5442 30.817 49.1564 30.4226C48.772 30.0249 48.2632 29.826 47.6301 29.826C47.2059 29.826 46.8281 29.9188 46.4966 30.1044C46.1652 30.29 45.905 30.5502 45.7161 30.8849C45.5272 31.2164 45.4327 31.6042 45.4327 32.0483ZM57.7175 31.0092L57.1557 31.1584C57.0662 30.88 56.9386 30.6397 56.7729 30.4375C56.6072 30.2353 56.3984 30.0795 56.1465 29.9702C55.8979 29.8575 55.5996 29.8011 55.2516 29.8011C54.6915 29.8011 54.2324 29.9403 53.8745 30.2188C53.5198 30.4972 53.3425 30.8601 53.3425 31.3075C53.3425 31.6721 53.4635 31.9737 53.7054 32.2124C53.9474 32.4477 54.3169 32.6267 54.8141 32.7493L55.9874 33.0426C56.5906 33.1918 57.0447 33.4337 57.3496 33.7685C57.6545 34.0999 57.807 34.5125 57.807 35.0064C57.807 35.4273 57.6926 35.8002 57.464 36.125C57.2353 36.4498 56.9187 36.7034 56.5144 36.8857C56.1133 37.0679 55.646 37.1591 55.1124 37.1591C54.3998 37.1591 53.8148 36.9934 53.3574 36.6619C52.9 36.3272 52.6067 35.8482 52.4775 35.2251L53.0591 35.076C53.1685 35.5732 53.3955 35.9527 53.7402 36.2145C54.0882 36.473 54.544 36.6023 55.1074 36.6023C55.7305 36.6023 56.2327 36.4548 56.6138 36.1598C56.9983 35.8648 57.1905 35.487 57.1905 35.0263C57.1905 34.675 57.0778 34.3783 56.8525 34.1364C56.6271 33.8944 56.2857 33.7171 55.8283 33.6044L54.6103 33.3061C53.9872 33.1536 53.5198 32.91 53.2083 32.5753C52.8967 32.2372 52.7409 31.8213 52.7409 31.3274C52.7409 30.9164 52.8487 30.5552 53.0641 30.2436C53.2795 29.9321 53.5762 29.6884 53.954 29.5128C54.3319 29.3371 54.7644 29.2493 55.2516 29.2493C55.8979 29.2493 56.4249 29.4018 56.8326 29.7067C57.2402 30.0116 57.5352 30.4458 57.7175 31.0092ZM62.6058 29.3636V29.9055H59.2699V29.3636H62.6058ZM60.3984 27.5341H61V35.1953C61 35.5069 61.0597 35.7621 61.179 35.9609C61.3016 36.1565 61.4607 36.3023 61.6562 36.3984C61.8551 36.4912 62.0672 36.5376 62.2926 36.5376C62.402 36.5376 62.4964 36.5294 62.576 36.5128C62.6589 36.4962 62.7367 36.4747 62.8097 36.4482L62.9588 37C62.866 37.0331 62.7633 37.0613 62.6506 37.0845C62.5379 37.111 62.4053 37.1243 62.2528 37.1243C61.9347 37.1243 61.633 37.053 61.348 36.9105C61.0663 36.768 60.8376 36.5608 60.6619 36.2891C60.4863 36.0173 60.3984 35.6892 60.3984 35.3047V27.5341ZM66.8789 37.1641C66.4381 37.1641 66.0337 37.0762 65.6658 36.9006C65.3013 36.7249 65.0079 36.468 64.7859 36.13C64.5671 35.7919 64.4577 35.3809 64.4577 34.897C64.4577 34.5788 64.5141 34.2988 64.6268 34.0568C64.7395 33.8149 64.9135 33.6061 65.1488 33.4304C65.3841 33.2547 65.6857 33.1106 66.0536 32.9979C66.4215 32.8819 66.8607 32.7924 67.3711 32.7294C67.7589 32.683 68.1052 32.6383 68.4102 32.5952C68.7151 32.5488 68.9537 32.4775 69.1261 32.3814C69.3017 32.2853 69.3896 32.1394 69.3896 31.9439V31.6257C69.3896 31.0689 69.2139 30.6264 68.8626 30.2983C68.5112 29.9702 68.0273 29.8061 67.4109 29.8061C66.864 29.8061 66.4033 29.9271 66.0288 30.169C65.6576 30.4077 65.3974 30.7159 65.2482 31.0938L64.6765 30.88C64.8223 30.5154 65.0328 30.2121 65.3079 29.9702C65.5863 29.7282 65.9045 29.5476 66.2624 29.4283C66.6237 29.3089 67.0015 29.2493 67.396 29.2493C67.7373 29.2493 68.0621 29.2973 68.3704 29.3935C68.6819 29.4896 68.9587 29.6354 69.2006 29.831C69.4459 30.0265 69.6398 30.2768 69.7823 30.5817C69.9248 30.8833 69.9961 31.2446 69.9961 31.6655V37H69.3896V35.6229H69.3448C69.2122 35.9079 69.0299 36.1681 68.7979 36.4034C68.5692 36.6354 68.2925 36.821 67.9677 36.9602C67.6462 37.0961 67.2833 37.1641 66.8789 37.1641ZM66.9386 36.6023C67.4158 36.6023 67.8384 36.4863 68.2063 36.2543C68.5775 36.0189 68.8675 35.6974 69.0763 35.2898C69.2852 34.8821 69.3896 34.4197 69.3896 33.9027V32.7791C69.3133 32.8454 69.2023 32.9051 69.0565 32.9581C68.9139 33.0078 68.7515 33.0526 68.5692 33.0923C68.3903 33.1288 68.2013 33.1619 68.0025 33.1918C67.8069 33.2183 67.6164 33.2431 67.4308 33.2663C66.8739 33.3326 66.4199 33.4354 66.0685 33.5746C65.7205 33.7105 65.4653 33.8894 65.3029 34.1115C65.1438 34.3336 65.0643 34.602 65.0643 34.9169C65.0643 35.4373 65.2433 35.8482 65.6012 36.1499C65.9592 36.4515 66.4049 36.6023 66.9386 36.6023ZM73.1456 26.8182V37H72.5391V26.8182H73.1456ZM76.2628 26.8182V37H75.6562V26.8182H76.2628ZM78.7734 37V29.3636H79.3651V30.517H79.4247C79.5705 30.1326 79.8224 29.8277 80.1804 29.6023C80.5384 29.3769 80.9692 29.2642 81.473 29.2642C82.0265 29.2642 82.4723 29.3968 82.8104 29.6619C83.1518 29.9271 83.397 30.2867 83.5462 30.7408H83.6009C83.75 30.2933 84.0168 29.9354 84.4013 29.6669C84.7891 29.3984 85.2663 29.2642 85.8331 29.2642C86.5722 29.2642 87.1357 29.4979 87.5234 29.9652C87.9145 30.4292 88.1101 31.0656 88.1101 31.8743V37H87.5036V31.8743C87.5036 31.2379 87.3511 30.7375 87.0462 30.3729C86.7412 30.0083 86.2938 29.826 85.7038 29.826C85.0741 29.826 84.5902 30.0232 84.2521 30.4176C83.9141 30.812 83.745 31.3142 83.745 31.924V37H83.1385V31.8345C83.1385 31.2412 82.9893 30.759 82.6911 30.3878C82.3928 30.0133 81.9453 29.826 81.3487 29.826C80.9444 29.826 80.5947 29.9188 80.2997 30.1044C80.008 30.29 79.781 30.5452 79.6186 30.87C79.4595 31.1948 79.38 31.5677 79.38 31.9886V37H78.7734ZM93.6049 37.1591C92.9155 37.1591 92.3156 36.9884 91.8052 36.647C91.2948 36.3056 90.9004 35.8383 90.622 35.245C90.3436 34.6518 90.2044 33.9756 90.2044 33.2166C90.2044 32.4543 90.3436 31.7749 90.622 31.1783C90.9037 30.5817 91.2898 30.111 91.7804 29.7663C92.2709 29.4216 92.831 29.2493 93.4608 29.2493C93.8883 29.2493 94.2927 29.3355 94.6738 29.5078C95.0583 29.6768 95.3964 29.9221 95.688 30.2436C95.983 30.5651 96.2134 30.9529 96.3791 31.407C96.5481 31.861 96.6326 32.3714 96.6326 32.9382V33.3161H90.5872V32.7642H96.0261C96.0261 32.2107 95.9134 31.7119 95.688 31.2678C95.4627 30.8236 95.1561 30.4706 94.7683 30.2088C94.3805 29.947 93.9447 29.8161 93.4608 29.8161C92.9537 29.8161 92.5012 29.9586 92.1035 30.2436C91.7091 30.5253 91.3959 30.9065 91.1639 31.3871C90.9352 31.8677 90.8159 32.4046 90.8059 32.9979V33.2464C90.8059 33.8828 90.917 34.4545 91.139 34.9616C91.3644 35.4654 91.6859 35.8648 92.1035 36.1598C92.5211 36.4515 93.0216 36.5973 93.6049 36.5973C94.0225 36.5973 94.3788 36.5277 94.6738 36.3885C94.9721 36.246 95.2157 36.0736 95.4047 35.8714C95.5936 35.6693 95.7361 35.4737 95.8322 35.2848L96.3841 35.5085C96.2681 35.7637 96.0874 36.0189 95.8422 36.2741C95.6002 36.526 95.292 36.7365 94.9174 36.9055C94.5462 37.0746 94.1087 37.1591 93.6049 37.1591ZM99.3272 32.0483V37H98.7207V29.3636H99.3123V30.5717H99.372C99.551 30.1773 99.8377 29.8608 100.232 29.6222C100.626 29.3835 101.095 29.2642 101.639 29.2642C102.153 29.2642 102.604 29.3736 102.991 29.5923C103.382 29.8111 103.687 30.1226 103.906 30.527C104.128 30.928 104.239 31.407 104.239 31.9638V37H103.633V31.9886C103.633 31.339 103.439 30.817 103.051 30.4226C102.666 30.0249 102.158 29.826 101.525 29.826C101.1 29.826 100.723 29.9188 100.391 30.1044C100.06 30.29 99.7995 30.5502 99.6106 30.8849C99.4217 31.2164 99.3272 31.6042 99.3272 32.0483ZM109.459 29.3636V29.9055H106.123V29.3636H109.459ZM107.252 27.5341H107.854V35.1953C107.854 35.5069 107.913 35.7621 108.032 35.9609C108.155 36.1565 108.314 36.3023 108.51 36.3984C108.709 36.4912 108.921 36.5376 109.146 36.5376C109.256 36.5376 109.35 36.5294 109.43 36.5128C109.512 36.4962 109.59 36.4747 109.663 36.4482L109.812 37C109.72 37.0331 109.617 37.0613 109.504 37.0845C109.391 37.111 109.259 37.1243 109.106 37.1243C108.788 37.1243 108.487 37.053 108.202 36.9105C107.92 36.768 107.691 36.5608 107.515 36.2891C107.34 36.0173 107.252 35.6892 107.252 35.3047V27.5341ZM115.646 39.8636V29.3636H116.238V31.0689H116.313C116.432 30.7408 116.599 30.4392 116.815 30.1641C117.034 29.889 117.304 29.6686 117.625 29.5028C117.95 29.3338 118.331 29.2493 118.769 29.2493C119.385 29.2493 119.922 29.4183 120.379 29.7564C120.837 30.0945 121.191 30.5618 121.443 31.1584C121.695 31.7517 121.821 32.4328 121.821 33.2017C121.821 33.9706 121.694 34.6534 121.438 35.25C121.186 35.8433 120.832 36.3106 120.374 36.652C119.92 36.9901 119.388 37.1591 118.779 37.1591C118.344 37.1591 117.963 37.0762 117.635 36.9105C117.31 36.7448 117.037 36.5244 116.815 36.2493C116.596 35.9709 116.429 35.666 116.313 35.3345H116.253V39.8636H115.646ZM116.243 33.1967C116.243 33.8464 116.343 34.428 116.541 34.9418C116.74 35.4522 117.025 35.8565 117.396 36.1548C117.768 36.4498 118.21 36.5973 118.724 36.5973C119.244 36.5973 119.69 36.4482 120.061 36.1499C120.436 35.8482 120.721 35.4406 120.916 34.9268C121.115 34.4131 121.215 33.8364 121.215 33.1967C121.215 32.5571 121.117 31.982 120.921 31.4716C120.726 30.9612 120.442 30.5585 120.071 30.2635C119.7 29.9652 119.251 29.8161 118.724 29.8161C118.204 29.8161 117.758 29.9635 117.387 30.2585C117.019 30.5502 116.735 30.9512 116.536 31.4616C116.341 31.9687 116.243 32.5471 116.243 33.1967ZM124.525 26.8182V37H123.918V26.8182H124.525ZM129.059 37.1641C128.618 37.1641 128.213 37.0762 127.846 36.9006C127.481 36.7249 127.188 36.468 126.966 36.13C126.747 35.7919 126.637 35.3809 126.637 34.897C126.637 34.5788 126.694 34.2988 126.806 34.0568C126.919 33.8149 127.093 33.6061 127.328 33.4304C127.564 33.2547 127.865 33.1106 128.233 32.9979C128.601 32.8819 129.04 32.7924 129.551 32.7294C129.939 32.683 130.285 32.6383 130.59 32.5952C130.895 32.5488 131.133 32.4775 131.306 32.3814C131.481 32.2853 131.569 32.1394 131.569 31.9439V31.6257C131.569 31.0689 131.394 30.6264 131.042 30.2983C130.691 29.9702 130.207 29.8061 129.591 29.8061C129.044 29.8061 128.583 29.9271 128.208 30.169C127.837 30.4077 127.577 30.7159 127.428 31.0938L126.856 30.88C127.002 30.5154 127.212 30.2121 127.488 29.9702C127.766 29.7282 128.084 29.5476 128.442 29.4283C128.803 29.3089 129.181 29.2493 129.576 29.2493C129.917 29.2493 130.242 29.2973 130.55 29.3935C130.862 29.4896 131.138 29.6354 131.38 29.831C131.626 30.0265 131.819 30.2768 131.962 30.5817C132.105 30.8833 132.176 31.2446 132.176 31.6655V37H131.569V35.6229H131.525C131.392 35.9079 131.21 36.1681 130.978 36.4034C130.749 36.6354 130.472 36.821 130.147 36.9602C129.826 37.0961 129.463 37.1641 129.059 37.1641ZM129.118 36.6023C129.596 36.6023 130.018 36.4863 130.386 36.2543C130.757 36.0189 131.047 35.6974 131.256 35.2898C131.465 34.8821 131.569 34.4197 131.569 33.9027V32.7791C131.493 32.8454 131.382 32.9051 131.236 32.9581C131.094 33.0078 130.931 33.0526 130.749 33.0923C130.57 33.1288 130.381 33.1619 130.182 33.1918C129.987 33.2183 129.796 33.2431 129.61 33.2663C129.054 33.3326 128.6 33.4354 128.248 33.5746C127.9 33.7105 127.645 33.8894 127.483 34.1115C127.324 34.3336 127.244 34.602 127.244 34.9169C127.244 35.4373 127.423 35.8482 127.781 36.1499C128.139 36.4515 128.585 36.6023 129.118 36.6023ZM135.325 32.0483V37H134.719V29.3636H135.31V30.5717H135.37C135.549 30.1773 135.836 29.8608 136.23 29.6222C136.625 29.3835 137.094 29.2642 137.637 29.2642C138.151 29.2642 138.602 29.3736 138.989 29.5923C139.38 29.8111 139.685 30.1226 139.904 30.527C140.126 30.928 140.237 31.407 140.237 31.9638V37H139.631V31.9886C139.631 31.339 139.437 30.817 139.049 30.4226C138.665 30.0249 138.156 29.826 137.523 29.826C137.098 29.826 136.721 29.9188 136.389 30.1044C136.058 30.29 135.798 30.5502 135.609 30.8849C135.42 31.2164 135.325 31.6042 135.325 32.0483ZM147.61 31.0092L147.048 31.1584C146.959 30.88 146.831 30.6397 146.665 30.4375C146.5 30.2353 146.291 30.0795 146.039 29.9702C145.79 29.8575 145.492 29.8011 145.144 29.8011C144.584 29.8011 144.125 29.9403 143.767 30.2188C143.412 30.4972 143.235 30.8601 143.235 31.3075C143.235 31.6721 143.356 31.9737 143.598 32.2124C143.84 32.4477 144.21 32.6267 144.707 32.7493L145.88 33.0426C146.483 33.1918 146.937 33.4337 147.242 33.7685C147.547 34.0999 147.7 34.5125 147.7 35.0064C147.7 35.4273 147.585 35.8002 147.357 36.125C147.128 36.4498 146.811 36.7034 146.407 36.8857C146.006 37.0679 145.539 37.1591 145.005 37.1591C144.292 37.1591 143.707 36.9934 143.25 36.6619C142.793 36.3272 142.499 35.8482 142.37 35.2251L142.952 35.076C143.061 35.5732 143.288 35.9527 143.633 36.2145C143.981 36.473 144.437 36.6023 145 36.6023C145.623 36.6023 146.125 36.4548 146.506 36.1598C146.891 35.8648 147.083 35.487 147.083 35.0263C147.083 34.675 146.97 34.3783 146.745 34.1364C146.52 33.8944 146.178 33.7171 145.721 33.6044L144.503 33.3061C143.88 33.1536 143.412 32.91 143.101 32.5753C142.789 32.2372 142.634 31.8213 142.634 31.3274C142.634 30.9164 142.741 30.5552 142.957 30.2436C143.172 29.9321 143.469 29.6884 143.847 29.5128C144.224 29.3371 144.657 29.2493 145.144 29.2493C145.79 29.2493 146.317 29.4018 146.725 29.7067C147.133 30.0116 147.428 30.4458 147.61 31.0092ZM150.366 37.0646C150.216 37.0646 150.089 37.0133 149.983 36.9105C149.88 36.8045 149.829 36.6768 149.829 36.5277C149.829 36.3819 149.88 36.2559 149.983 36.1499C150.089 36.0438 150.216 35.9908 150.366 35.9908C150.511 35.9908 150.637 36.0438 150.743 36.1499C150.849 36.2559 150.903 36.3819 150.903 36.5277C150.903 36.6271 150.878 36.7183 150.828 36.8011C150.782 36.8807 150.717 36.9453 150.634 36.995C150.555 37.0414 150.465 37.0646 150.366 37.0646Z" fill="#111111"/>
<path d="M157.114 37V27.5455H158.54V35.772H162.824V37H157.114ZM167.397 37.1431C166.698 37.1431 166.097 36.9938 165.592 36.6953C165.09 36.3937 164.703 35.9705 164.429 35.4258C164.158 34.878 164.022 34.2363 164.022 33.5007C164.022 32.7744 164.158 32.1342 164.429 31.5803C164.703 31.0263 165.084 30.5939 165.574 30.283C166.066 29.9722 166.642 29.8168 167.3 29.8168C167.7 29.8168 168.088 29.8829 168.464 30.0153C168.839 30.1476 169.176 30.3554 169.475 30.6385C169.773 30.9216 170.008 31.2894 170.181 31.7418C170.353 32.1912 170.439 32.7375 170.439 33.3807V33.87H164.803V32.8359H169.087C169.087 32.4728 169.013 32.1512 168.865 31.8711C168.717 31.5879 168.51 31.3648 168.242 31.2017C167.977 31.0386 167.666 30.957 167.309 30.957C166.922 30.957 166.583 31.0524 166.294 31.2433C166.008 31.431 165.786 31.6772 165.629 31.9819C165.475 32.2835 165.398 32.6113 165.398 32.9652V33.7731C165.398 34.247 165.481 34.6502 165.647 34.9826C165.817 35.315 166.052 35.5689 166.354 35.7443C166.655 35.9167 167.008 36.0028 167.411 36.0028C167.673 36.0028 167.911 35.9659 168.127 35.892C168.342 35.8151 168.528 35.7012 168.685 35.5504C168.842 35.3996 168.962 35.2134 169.045 34.9918L170.352 35.2273C170.247 35.612 170.059 35.949 169.788 36.2383C169.521 36.5245 169.184 36.7476 168.777 36.9077C168.374 37.0646 167.914 37.1431 167.397 37.1431ZM174.034 37.157C173.585 37.157 173.179 37.0739 172.816 36.9077C172.453 36.7384 172.165 36.4937 171.952 36.1737C171.743 35.8536 171.638 35.4612 171.638 34.9964C171.638 34.5964 171.715 34.267 171.869 34.0085C172.023 33.75 172.231 33.5453 172.493 33.3945C172.754 33.2437 173.047 33.1299 173.37 33.0529C173.693 32.976 174.022 32.9175 174.358 32.8775C174.782 32.8282 175.127 32.7882 175.392 32.7575C175.656 32.7236 175.849 32.6697 175.969 32.5959C176.089 32.522 176.149 32.402 176.149 32.2358V32.2035C176.149 31.8003 176.035 31.4879 175.807 31.2663C175.583 31.0447 175.247 30.9339 174.801 30.9339C174.336 30.9339 173.97 31.037 173.702 31.2433C173.437 31.4464 173.254 31.6726 173.153 31.9219L171.855 31.6264C172.009 31.1955 172.234 30.8478 172.529 30.5831C172.828 30.3153 173.171 30.1214 173.559 30.0014C173.947 29.8783 174.355 29.8168 174.782 29.8168C175.065 29.8168 175.366 29.8506 175.683 29.9183C176.003 29.983 176.301 30.103 176.578 30.2784C176.858 30.4538 177.087 30.7047 177.266 31.0309C177.444 31.354 177.534 31.7741 177.534 32.2912V37H176.186V36.0305H176.13C176.041 36.209 175.907 36.3845 175.729 36.5568C175.55 36.7292 175.321 36.8723 175.041 36.9862C174.761 37.1 174.425 37.157 174.034 37.157ZM174.335 36.049C174.716 36.049 175.042 35.9736 175.313 35.8228C175.587 35.672 175.795 35.475 175.936 35.2319C176.081 34.9857 176.153 34.7225 176.153 34.4425V33.5284C176.104 33.5777 176.009 33.6238 175.867 33.6669C175.729 33.7069 175.57 33.7423 175.392 33.7731C175.213 33.8008 175.039 33.8269 174.87 33.8516C174.701 33.8731 174.559 33.8916 174.445 33.907C174.178 33.9408 173.933 33.9978 173.711 34.0778C173.493 34.1578 173.317 34.2732 173.185 34.424C173.056 34.5717 172.991 34.7687 172.991 35.0149C172.991 35.3565 173.117 35.6151 173.37 35.7905C173.622 35.9628 173.944 36.049 174.335 36.049ZM179.372 37V29.9091H180.706V31.0355H180.78C180.91 30.6539 181.137 30.3538 181.464 30.1353C181.793 29.9137 182.165 29.8029 182.581 29.8029C182.667 29.8029 182.768 29.806 182.885 29.8121C183.005 29.8183 183.099 29.826 183.167 29.8352V31.1555C183.112 31.1402 183.013 31.1232 182.872 31.1048C182.73 31.0832 182.588 31.0724 182.447 31.0724C182.121 31.0724 181.83 31.1417 181.574 31.2802C181.322 31.4156 181.122 31.6049 180.974 31.848C180.826 32.0881 180.753 32.362 180.753 32.6697V37H179.372ZM185.742 32.7898V37H184.362V29.9091H185.686V31.0632H185.774C185.937 30.6877 186.193 30.3861 186.54 30.1584C186.891 29.9306 187.333 29.8168 187.865 29.8168C188.349 29.8168 188.772 29.9183 189.135 30.1214C189.498 30.3215 189.78 30.62 189.98 31.017C190.18 31.4141 190.28 31.9049 190.28 32.4897V37H188.9V32.6559C188.9 32.1419 188.766 31.7403 188.498 31.451C188.23 31.1586 187.862 31.0124 187.395 31.0124C187.074 31.0124 186.79 31.0817 186.54 31.2202C186.294 31.3587 186.099 31.5618 185.954 31.8295C185.813 32.0942 185.742 32.4143 185.742 32.7898ZM195.571 37V29.9091H196.896V31.0632H196.984C197.132 30.6723 197.373 30.3677 197.709 30.1491C198.044 29.9276 198.446 29.8168 198.914 29.8168C199.388 29.8168 199.785 29.9276 200.105 30.1491C200.428 30.3707 200.667 30.6754 200.82 31.0632H200.894C201.064 30.6847 201.333 30.383 201.702 30.1584C202.071 29.9306 202.512 29.8168 203.022 29.8168C203.666 29.8168 204.19 30.0183 204.597 30.4215C205.006 30.8247 205.211 31.4325 205.211 32.245V37H203.83V32.3743C203.83 31.8942 203.7 31.5464 203.438 31.331C203.176 31.1155 202.864 31.0078 202.501 31.0078C202.051 31.0078 201.702 31.1463 201.453 31.4233C201.204 31.6972 201.079 32.0496 201.079 32.4805V37H199.703V32.2866C199.703 31.9019 199.583 31.5926 199.343 31.3587C199.103 31.1248 198.791 31.0078 198.406 31.0078C198.144 31.0078 197.903 31.0771 197.681 31.2156C197.463 31.351 197.286 31.5402 197.15 31.7834C197.018 32.0265 196.952 32.3081 196.952 32.6282V37H195.571ZM210.048 37.1431C209.383 37.1431 208.803 36.9908 208.307 36.6861C207.812 36.3814 207.427 35.9551 207.153 35.4073C206.879 34.8595 206.742 34.2193 206.742 33.4869C206.742 32.7513 206.879 32.1081 207.153 31.5572C207.427 31.0063 207.812 30.5785 208.307 30.2738C208.803 29.9691 209.383 29.8168 210.048 29.8168C210.712 29.8168 211.292 29.9691 211.788 30.2738C212.283 30.5785 212.668 31.0063 212.942 31.5572C213.216 32.1081 213.353 32.7513 213.353 33.4869C213.353 34.2193 213.216 34.8595 212.942 35.4073C212.668 35.9551 212.283 36.3814 211.788 36.6861C211.292 36.9908 210.712 37.1431 210.048 37.1431ZM210.052 35.9844C210.483 35.9844 210.84 35.8705 211.123 35.6428C211.406 35.415 211.616 35.1119 211.751 34.7333C211.89 34.3548 211.959 33.9377 211.959 33.4822C211.959 33.0298 211.89 32.6143 211.751 32.2358C211.616 31.8542 211.406 31.5479 211.123 31.3171C210.84 31.0863 210.483 30.9709 210.052 30.9709C209.618 30.9709 209.258 31.0863 208.972 31.3171C208.689 31.5479 208.478 31.8542 208.339 32.2358C208.204 32.6143 208.136 33.0298 208.136 33.4822C208.136 33.9377 208.204 34.3548 208.339 34.7333C208.478 35.1119 208.689 35.415 208.972 35.6428C209.258 35.8705 209.618 35.9844 210.052 35.9844ZM214.894 37V29.9091H216.228V31.0355H216.302C216.431 30.6539 216.659 30.3538 216.985 30.1353C217.314 29.9137 217.687 29.8029 218.102 29.8029C218.188 29.8029 218.29 29.806 218.407 29.8121C218.527 29.8183 218.621 29.826 218.688 29.8352V31.1555C218.633 31.1402 218.535 31.1232 218.393 31.1048C218.251 31.0832 218.11 31.0724 217.968 31.0724C217.642 31.0724 217.351 31.1417 217.096 31.2802C216.843 31.4156 216.643 31.6049 216.496 31.848C216.348 32.0881 216.274 32.362 216.274 32.6697V37H214.894ZM222.685 37.1431C221.987 37.1431 221.385 36.9938 220.88 36.6953C220.378 36.3937 219.991 35.9705 219.717 35.4258C219.446 34.878 219.311 34.2363 219.311 33.5007C219.311 32.7744 219.446 32.1342 219.717 31.5803C219.991 31.0263 220.372 30.5939 220.862 30.283C221.354 29.9722 221.93 29.8168 222.588 29.8168C222.988 29.8168 223.376 29.8829 223.752 30.0153C224.127 30.1476 224.464 30.3554 224.763 30.6385C225.061 30.9216 225.297 31.2894 225.469 31.7418C225.641 32.1912 225.727 32.7375 225.727 33.3807V33.87H220.091V32.8359H224.375C224.375 32.4728 224.301 32.1512 224.153 31.8711C224.006 31.5879 223.798 31.3648 223.53 31.2017C223.265 31.0386 222.954 30.957 222.597 30.957C222.21 30.957 221.871 31.0524 221.582 31.2433C221.296 31.431 221.074 31.6772 220.917 31.9819C220.763 32.2835 220.686 32.6113 220.686 32.9652V33.7731C220.686 34.247 220.769 34.6502 220.936 34.9826C221.105 35.315 221.34 35.5689 221.642 35.7443C221.943 35.9167 222.296 36.0028 222.699 36.0028C222.961 36.0028 223.199 35.9659 223.415 35.892C223.63 35.8151 223.816 35.7012 223.973 35.5504C224.13 35.3996 224.25 35.2134 224.333 34.9918L225.64 35.2273C225.535 35.612 225.347 35.949 225.077 36.2383C224.809 36.5245 224.472 36.7476 224.066 36.9077C223.662 37.0646 223.202 37.1431 222.685 37.1431Z" fill="#111111"/>
<path d="M156.075 39.5852H226.337V40.4716H156.075V39.5852Z" fill="#111111"/>
<defs>
<clipPath id="clip0_509_200">
<rect width="16" height="16" fill="white"/>
</clipPath>
<clipPath id="clip1_509_200">
<rect width="16" height="16" fill="white" transform="translate(16)"/>
</clipPath>
<clipPath id="clip2_509_200">
<rect width="16" height="16" fill="white" transform="translate(32)"/>
</clipPath>
<clipPath id="clip3_509_200">
<rect width="16" height="16" fill="white" transform="translate(48)"/>
</clipPath>
<clipPath id="clip4_509_200">
<rect width="16" height="16" fill="white" transform="translate(64)"/>
</clipPath>
<clipPath id="clip5_509_200">
<rect width="36" height="20" fill="white" transform="translate(0 22)"/>
</clipPath>
</defs>
</svg>
