<svg width="49" height="49" viewBox="0 0 49 49" fill="none" xmlns="http://www.w3.org/2000/svg">
<g clip-path="url(#clip0_501_773)">
<path fill-rule="evenodd" clip-rule="evenodd" d="M11.4628 4.91998C14.0832 3.16126 17.0247 1.9366 20.119 1.31611C23.2133 0.695627 26.3995 0.691491 29.4954 1.30394C32.5912 1.9164 35.5359 3.13341 38.1609 4.88533C40.7858 6.63724 43.0394 8.88965 44.7928 11.5136C46.5461 14.1376 47.7648 17.0816 48.3789 20.1771C48.9931 23.2727 48.9907 26.4589 48.3719 29.5535C47.7531 32.6481 46.53 35.5903 44.7727 38.2117C43.0154 40.833 40.7584 43.082 38.1308 44.83C32.8383 48.3508 26.3651 49.6282 20.1319 48.3818C13.8986 47.1354 8.41437 43.467 4.8827 38.1817C1.35103 32.8964 0.0604013 26.4258 1.29403 20.19C2.52766 13.9542 6.18478 8.46248 11.4628 4.91998ZM34.1768 37.305C35.7841 36.5181 37.2721 35.5081 38.5968 34.305C40.1502 32.977 41.3775 31.3097 42.1838 29.4318C42.9901 27.5539 43.3538 25.5158 43.2468 23.475C43.2321 23.3451 43.2114 23.216 43.1848 23.088C43.1508 22.908 43.1168 22.73 43.1168 22.555V22.345C42.1868 17.055 37.7768 12.835 31.7768 11.055C31.7031 11.0046 31.6162 10.9768 31.5268 10.975C26.2703 9.50785 20.6612 9.98356 15.7268 12.315C15.6463 12.3294 15.5707 12.3638 15.5068 12.415C9.89685 15.185 6.21685 20.165 6.33685 25.635C6.32637 25.7012 6.32637 25.7687 6.33685 25.835V26.275C6.79685 32.985 12.9768 38.225 20.9268 39.355H21.0068C22.0668 39.508 23.1368 39.585 24.2068 39.585C24.7798 39.585 25.3598 39.565 25.9468 39.525C28.8077 39.3231 31.6025 38.5692 34.1768 37.305ZM31.3268 23.045L25.2068 23.605L24.2568 11.095H25.4668C27.3935 11.0948 29.3111 11.3572 31.1668 11.875C32.4398 14.8389 33.4666 17.9026 34.2368 21.035L34.5668 22.775L32.3968 22.975L32.6148 22.5C32.7888 22.124 32.9509 21.775 33.1068 21.405C33.1307 21.3616 33.1411 21.3121 33.1367 21.2627C33.1323 21.2134 33.1134 21.1665 33.0824 21.1279C33.0513 21.0893 33.0095 21.0609 32.9622 21.0461C32.9149 21.0313 32.8643 21.031 32.8168 21.045C32.7852 21.0541 32.7556 21.0694 32.7299 21.09C32.7041 21.1106 32.6827 21.1361 32.6668 21.165C32.2268 21.805 31.7868 22.445 31.3268 23.045ZM29.1668 17.085C28.2968 15.815 27.0468 15.155 26.3768 15.605V15.575C25.7068 16.035 25.8668 17.475 26.7368 18.745C27.6068 20.015 28.8868 20.675 29.5268 20.215C30.1668 19.755 30.0368 18.355 29.1668 17.085ZM16.2068 13.185C18.4315 12.1401 20.82 11.4871 23.2668 11.255L24.2068 23.695L14.4468 24.585C14.3434 23.5149 14.3201 22.4386 14.3768 21.365C14.6025 18.5663 15.2184 15.813 16.2068 13.185ZM18.9968 19.465C19.7868 20.855 20.9468 21.685 21.5968 21.315C22.2468 20.945 22.1268 19.515 21.3468 18.135C20.5668 16.755 19.4068 15.915 18.7568 16.285C18.1068 16.655 18.2068 18.075 18.9968 19.465ZM29.9468 24.665C30.0728 24.539 30.1878 24.407 30.3048 24.275L30.4268 24.135L25.2768 24.605L25.5368 27.975C25.8868 27.795 26.2368 27.605 26.5368 27.395C27.7965 26.6503 28.9446 25.7312 29.9468 24.665ZM27.1968 28.425C28.5687 27.6513 29.7885 26.6348 30.7968 25.425C31.1728 24.983 31.5068 24.508 31.7968 24.005L34.7768 23.675V23.775C35.5168 28.535 35.0569 33.135 33.5168 36.455C31.2531 37.5399 28.8158 38.2169 26.3168 38.455L25.6168 29.205C26.1598 28.9794 26.6876 28.7188 27.1968 28.425ZM35.2168 20.785C35.3668 21.405 35.4868 22.025 35.5968 22.625L42.0368 22.045C41.0368 17.605 37.3769 14.045 32.4168 12.275C33.5706 15.0343 34.5067 17.8797 35.2168 20.785ZM13.5868 25.725V25.875C14.4087 30.4299 16.4789 34.6672 19.5668 38.115C12.8568 36.655 7.79685 32.055 7.35685 26.295L13.5868 25.725ZM13.4468 24.685C13.3437 23.5647 13.3203 22.4386 13.3768 21.315C13.5764 18.7811 14.0903 16.2819 14.9068 13.875C10.3468 16.475 7.37685 20.665 7.31685 25.265L13.4468 24.685ZM35.7968 23.645L42.1968 23.065C42.2068 23.145 42.2218 23.225 42.2368 23.305C42.2518 23.385 42.2668 23.465 42.2768 23.545C42.3668 25.4328 42.0223 27.316 41.2699 29.0497C40.5175 30.7835 39.3772 32.3213 37.9368 33.545C37.016 34.3806 36.0106 35.1179 34.9368 35.745C36.2328 31.8474 36.5286 27.6867 35.7968 23.645ZM24.6568 29.625C24.0568 29.835 23.4418 30.003 22.8168 30.125C21.2879 30.4478 19.7144 30.502 18.1668 30.285C18.1154 30.2752 18.0698 30.2457 18.0398 30.2027C18.0099 30.1597 17.9981 30.1066 18.0068 30.055C18.0118 30.0108 18.0329 29.97 18.0661 29.9404C18.0994 29.9109 18.1424 29.8947 18.1868 29.895C19.6668 29.815 21.1328 29.567 22.5568 29.155C23.2368 28.948 23.9038 28.705 24.5568 28.425L24.2768 24.695L14.5568 25.585V25.695C15.4374 30.4917 17.7283 34.917 21.1368 38.405C22.5218 38.588 23.9208 38.645 25.3168 38.575L24.6568 29.625Z" fill="#333333"/>
</g>
<defs>
<clipPath id="clip0_501_773">
<rect width="48" height="48" fill="white" transform="translate(0.796875 0.875)"/>
</clipPath>
</defs>
</svg>
