<svg width="49" height="49" viewBox="0 0 49 49" fill="none" xmlns="http://www.w3.org/2000/svg">
<path fill-rule="evenodd" clip-rule="evenodd" d="M11.0566 4.91998C13.677 3.16126 16.6185 1.9366 19.7127 1.31611C22.807 0.695627 25.9933 0.691491 29.0891 1.30394C32.185 1.9164 35.1297 3.13341 37.7546 4.88533C40.3795 6.63724 42.6332 8.88965 44.3865 11.5136C46.1399 14.1376 47.3585 17.0816 47.9727 20.1771C48.5868 23.2727 48.5844 26.4589 47.9656 29.5535C47.3468 32.6481 46.1238 35.5903 44.3665 38.2117C42.6092 40.833 40.3522 43.082 37.7246 44.83C32.432 48.3508 25.9589 49.6282 19.7256 48.3818C13.4923 47.1354 8.00812 43.467 4.47645 38.1817C0.944782 32.8964 -0.345849 26.4258 0.887781 20.19C2.12141 13.9542 5.77853 8.46248 11.0566 4.91998ZM36.3906 38.625L38.7206 26.335C38.9405 25.1474 38.6825 23.9211 38.0027 22.9228C37.3228 21.9246 36.2762 21.2353 35.0906 21.005L33.7006 20.745L34.5706 16.125C34.855 14.2316 34.3935 12.3017 33.2832 10.7418C32.1729 9.182 30.5006 8.11394 28.6184 7.76266C26.7363 7.41138 24.7913 7.8043 23.1931 8.85864C21.5949 9.91299 20.4683 11.5465 20.0506 13.415L19.1906 18.025L17.7206 17.755C16.5305 17.5382 15.3029 17.8001 14.3048 18.4836C13.3067 19.1671 12.6188 20.217 12.3906 21.405L10.0606 33.705C9.8441 34.8966 10.1073 36.1254 10.7929 37.1238C11.4784 38.1221 12.5308 38.8091 13.7206 39.035L31.0606 42.285C31.3376 42.333 31.6186 42.357 31.9006 42.355C32.822 42.3575 33.7222 42.0784 34.4806 41.555C35.479 40.8687 36.1656 39.8154 36.3906 38.625ZM33.5506 15.945C33.7187 15.1158 33.7202 14.2615 33.555 13.4317C33.3897 12.6019 33.0611 11.8133 32.5882 11.1118C32.1153 10.4103 31.5075 9.80982 30.8003 9.34541C30.0931 8.88099 29.3006 8.5619 28.4689 8.4067C27.6372 8.25151 26.783 8.26331 25.9559 8.44142C25.1288 8.61953 24.3454 8.96039 23.6513 9.44416C22.9572 9.92792 22.3663 10.5449 21.9129 11.2593C21.4596 11.9736 21.1528 12.771 21.0106 13.605L20.1406 18.215L32.6906 20.555L33.5506 15.945ZM34.8806 21.985L17.5106 18.735C17.2929 18.6952 17.072 18.6751 16.8506 18.675C16.0266 18.6862 15.2319 18.9821 14.6013 19.5125C13.9706 20.0429 13.5429 20.7751 13.3906 21.585L11.0506 33.875C10.8781 34.8044 11.0812 35.7644 11.6155 36.5442C12.1498 37.3241 12.9716 37.8602 13.9006 38.035L31.2706 41.285C32.1925 41.4461 33.1409 41.2388 33.9115 40.7076C34.682 40.1765 35.2132 39.3639 35.3906 38.445L37.6906 26.145C37.8641 25.2213 37.6664 24.2665 37.1403 23.4877C36.6142 22.7089 35.8023 22.1689 34.8806 21.985ZM23.7506 27.105C23.9106 26.205 24.4106 25.535 24.8406 25.625C25.2706 25.715 25.5006 26.495 25.3306 27.395C25.1606 28.295 24.6706 28.965 24.2406 28.885C23.8106 28.805 23.5806 28.005 23.7506 27.105ZM28.4206 34.105C27.5067 34.255 26.5745 34.255 25.6606 34.105C24.2681 33.8586 22.9608 33.2634 21.8606 32.375C21.4976 32.0727 21.1629 31.738 20.8606 31.375C20.2396 30.6428 19.7736 29.7924 19.4906 28.875C19.4706 28.806 19.4724 28.7325 19.4957 28.6645C19.5189 28.5965 19.5625 28.5373 19.6206 28.495C19.6942 28.4481 19.783 28.4313 19.8686 28.448C19.9542 28.4648 20.0301 28.5138 20.0806 28.585C20.5446 29.299 21.0736 29.968 21.6606 30.585C22.235 31.1736 22.8838 31.6846 23.5906 32.105C25.0487 32.9511 26.7048 33.3962 28.3906 33.395C28.4781 33.3884 28.5647 33.4168 28.6313 33.474C28.6978 33.5312 28.739 33.6125 28.7456 33.7C28.7522 33.7875 28.7238 33.8741 28.6666 33.9406C28.6094 34.0072 28.5281 34.0484 28.4406 34.055L28.4206 34.105ZM28.4206 29.575C27.9806 29.575 27.6506 28.795 27.6906 27.885C27.7306 26.975 28.1206 26.245 28.5706 26.255C29.0206 26.265 29.3406 27.035 29.3006 27.955C29.2606 28.875 28.8706 29.545 28.3906 29.525L28.4206 29.575Z" fill="#333333"/>
</svg>
