<svg width="49" height="49" viewBox="0 0 49 49" fill="none" xmlns="http://www.w3.org/2000/svg">
<g clip-path="url(#clip0_501_752)">
<path fill-rule="evenodd" clip-rule="evenodd" d="M11.0566 4.91998C13.677 3.16126 16.6185 1.9366 19.7127 1.31611C22.807 0.695627 25.9933 0.691491 29.0891 1.30394C32.185 1.9164 35.1297 3.13341 37.7546 4.88533C40.3795 6.63724 42.6332 8.88965 44.3865 11.5136C46.1399 14.1376 47.3585 17.0816 47.9727 20.1771C48.5868 23.2727 48.5844 26.4589 47.9656 29.5535C47.3468 32.6481 46.1238 35.5903 44.3665 38.2117C42.6092 40.833 40.3522 43.082 37.7246 44.83C32.432 48.3508 25.9589 49.6282 19.7256 48.3818C13.4923 47.1354 8.00812 43.467 4.47645 38.1817C0.944782 32.8964 -0.345849 26.4258 0.887781 20.19C2.12141 13.9542 5.77853 8.46248 11.0566 4.91998ZM23.6506 38.455L41.7506 24.665L41.7806 24.725C42.1928 24.419 42.516 24.0088 42.717 23.5364C42.9181 23.0641 42.9897 22.5468 42.9245 22.0376C42.8594 21.5284 42.6598 21.0458 42.3462 20.6393C42.0327 20.2329 41.6165 19.9173 41.1406 19.725L20.1406 10.955C19.6746 10.757 19.1647 10.6849 18.662 10.746C18.1594 10.807 17.6816 10.9991 17.2765 11.3029C16.8714 11.6067 16.5533 12.0116 16.3539 12.477C16.1546 12.9425 16.081 13.4522 16.1406 13.955L16.5606 17.245L8.9606 16.765C8.53559 16.738 8.10986 16.8052 7.71387 16.962C7.31789 17.1187 6.96143 17.361 6.67 17.6715C6.37857 17.982 6.15938 18.3531 6.0281 18.7583C5.89682 19.1634 5.85669 19.5925 5.9106 20.015L7.6206 33.245C7.67444 33.6676 7.82107 34.0731 8.04998 34.4325C8.27888 34.7918 8.58441 35.0961 8.94467 35.3235C9.30494 35.5509 9.71104 35.6959 10.1339 35.748C10.5567 35.8001 10.9859 35.7581 11.3906 35.625L18.6106 33.295L19.0306 36.575C19.0947 37.0796 19.2913 37.5583 19.6005 37.9623C19.9096 38.3663 20.3202 38.6812 20.7906 38.875C21.1466 38.998 21.5246 39.05 21.9006 39.025C22.0236 39.035 22.1476 39.035 22.2706 39.025C22.7736 38.9629 23.2504 38.766 23.6506 38.455ZM19.7306 11.875L40.7306 20.625V20.635C41.0354 20.7632 41.3013 20.9691 41.5016 21.2322C41.7019 21.4953 41.8297 21.8063 41.8722 22.1342C41.9147 22.4621 41.8705 22.7955 41.7438 23.1009C41.6172 23.4064 41.4126 23.6733 41.1506 23.875L23.0506 37.625C22.8185 37.7993 22.5499 37.9187 22.265 37.9743C21.98 38.0299 21.6862 38.0202 21.4056 37.946C21.0455 37.8488 20.7224 37.6467 20.4775 37.3653C20.2327 37.084 20.0771 36.7361 20.0306 36.366L19.4506 31.875L11.0706 34.675C10.8054 34.761 10.5245 34.7876 10.2478 34.7529C9.9712 34.7182 9.70558 34.623 9.46985 34.4741C9.23411 34.3252 9.03403 34.1263 8.88381 33.8914C8.73358 33.6565 8.63689 33.3914 8.6006 33.115L6.9106 19.875C6.8662 19.4682 6.95717 19.0582 7.16941 18.7084C7.38166 18.3585 7.70333 18.0885 8.0846 17.94C8.3439 17.838 8.62262 17.795 8.9006 17.814L17.7006 18.364L17.1306 13.874C17.0856 13.5441 17.1285 13.2083 17.255 12.9003C17.3815 12.5924 17.587 12.3233 17.8509 12.1204C18.1147 11.9174 18.4275 11.7877 18.7576 11.7444C19.0877 11.7012 19.4233 11.7459 19.7306 11.874V11.875ZM29.9006 20.285C29.7906 19.535 29.4006 18.965 29.0406 19.015C28.6706 19.065 28.4606 19.725 28.5706 20.475C28.6806 21.225 29.0606 21.795 29.4306 21.745C29.8006 21.695 30.0106 21.035 29.9006 20.285ZM26.5806 22.395C26.5806 21.635 26.2806 21.015 25.9106 21.015V21.045C25.5406 21.045 25.2406 21.635 25.2406 22.395C25.2406 23.155 25.5406 23.775 25.9106 23.775C26.2806 23.775 26.5806 23.155 26.5806 22.395ZM27.8606 27.765C28.6309 27.758 29.3947 27.6228 30.1206 27.365L30.0806 27.405C30.1381 27.3762 30.184 27.3285 30.2104 27.2698C30.2369 27.2112 30.2424 27.1453 30.226 27.0831C30.2096 27.0209 30.1722 26.9663 30.1202 26.9284C30.0683 26.8905 30.0048 26.8716 29.9406 26.875C28.5683 27.1196 27.1561 27.0059 25.8406 26.545C25.1948 26.295 24.586 25.9586 24.0306 25.545C23.4599 25.1452 22.9276 24.6932 22.4406 24.195C22.4155 24.1685 22.3852 24.1475 22.3517 24.1331C22.3182 24.1187 22.2821 24.1113 22.2456 24.1113C22.2091 24.1113 22.173 24.1187 22.1395 24.1331C22.106 24.1475 22.0757 24.1685 22.0506 24.195C22.0101 24.2366 21.9836 24.2897 21.9746 24.347C21.9657 24.4043 21.9748 24.463 22.0006 24.515C22.5756 25.5457 23.4417 26.384 24.4906 26.925C24.8356 27.106 25.1936 27.263 25.5606 27.395C26.3021 27.6425 27.0789 27.7675 27.8606 27.765Z" fill="#333333"/>
</g>
<defs>
<clipPath id="clip0_501_752">
<rect width="48" height="48" fill="white" transform="translate(0.390625 0.875)"/>
</clipPath>
</defs>
</svg>
