<svg width="49" height="49" viewBox="0 0 49 49" fill="none" xmlns="http://www.w3.org/2000/svg">
<g clip-path="url(#clip0_501_759)">
<path d="M24.7969 0.875C18.4317 0.875 12.3272 3.40356 7.82631 7.90444C3.32544 12.4053 0.796875 18.5098 0.796875 24.875C0.796875 31.2402 3.32544 37.3447 7.82631 41.8456C12.3272 46.3464 18.4317 48.875 24.7969 48.875C31.1621 48.875 37.2666 46.3464 41.7674 41.8456C46.2683 37.3447 48.7969 31.2402 48.7969 24.875C48.7969 18.5098 46.2683 12.4053 41.7674 7.90444C37.2666 3.40356 31.1621 0.875 24.7969 0.875V0.875ZM40.7969 29.565C40.7747 29.632 40.7386 29.6936 40.6909 29.7456C40.6432 29.7976 40.5851 29.839 40.5202 29.867C40.4554 29.8949 40.3854 29.9088 40.3149 29.9078C40.2443 29.9067 40.1747 29.8908 40.1108 29.8609C40.0468 29.8311 39.9899 29.788 39.9438 29.7346C39.8976 29.6812 39.8633 29.6186 39.8431 29.551C39.8229 29.4833 39.8173 29.4122 39.8265 29.3422C39.8358 29.2723 39.8598 29.205 39.8969 29.145C40.0469 28.815 43.6169 21.015 38.8969 14.245C35.1769 8.875 28.9769 8.175 26.4869 8.135C22.2447 8.13359 18.1363 9.61982 14.8769 12.335C11.5432 14.951 9.28983 18.7031 8.54688 22.875C7.36688 30.165 10.4769 36.685 16.6569 39.875C18.8614 41.0231 21.3113 41.6201 23.7969 41.615C28.0666 41.5561 32.1577 39.8925 35.2569 36.955L32.2569 36.485C32.1283 36.4518 32.0181 36.3689 31.9506 36.2545C31.8831 36.1401 31.8638 36.0036 31.8969 35.875C31.919 35.7448 31.9908 35.6283 32.0971 35.55C32.2034 35.4716 32.336 35.4376 32.4669 35.455L36.4669 36.085C36.5964 36.1071 36.712 36.1793 36.7888 36.2859C36.8655 36.3926 36.8971 36.5252 36.8769 36.655L36.2569 40.655C36.2379 40.7743 36.1773 40.8829 36.0857 40.9617C35.9942 41.0404 35.8776 41.0841 35.7569 41.085H35.6869C35.5556 41.065 35.4377 40.9938 35.3589 40.8869C35.2802 40.78 35.2471 40.6463 35.2669 40.515L35.7069 37.875C32.4561 40.8678 28.2151 42.5556 23.7969 42.615C21.1397 42.6182 18.5214 41.9765 16.1669 40.745C9.61687 37.325 6.30688 30.405 7.55688 22.685C8.34294 18.2815 10.7248 14.3224 14.2469 11.565C17.6833 8.68875 22.0257 7.11967 26.5069 7.135C29.1469 7.135 35.7269 7.905 39.7169 13.685C44.7169 20.875 40.9269 29.215 40.7969 29.565ZM20.3769 31.055C21.7184 31.836 23.2446 32.2435 24.7969 32.235C27.6765 32.1843 30.4389 31.0857 32.5669 29.145C33.8645 27.9373 34.8465 26.43 35.4269 24.755C35.4746 24.6339 35.5676 24.5362 35.6863 24.4826C35.8049 24.429 35.9397 24.4238 36.0621 24.4681C36.1845 24.5124 36.2848 24.6026 36.3417 24.7197C36.3987 24.8368 36.4077 24.9714 36.3669 25.095C35.7427 26.9168 34.6818 28.5579 33.2769 29.875C30.9557 31.9935 27.9391 33.1888 24.7969 33.235C23.0425 33.2581 21.3146 32.8054 19.7969 31.925C18.4979 31.1152 17.3823 30.0432 16.5213 28.7776C15.6604 27.512 15.073 26.0806 14.7969 24.575L13.4869 26.875C13.442 26.9487 13.3788 27.0096 13.3035 27.0516C13.2281 27.0937 13.1432 27.1155 13.0569 27.115C12.9682 27.1261 12.8781 27.1123 12.7969 27.075C12.7402 27.0411 12.6907 26.9963 12.6514 26.9431C12.6121 26.89 12.5838 26.8296 12.568 26.7655C12.5522 26.7013 12.5492 26.6346 12.5593 26.5693C12.5694 26.504 12.5924 26.4414 12.6269 26.385L14.7969 22.875C14.8669 22.7614 14.9779 22.6791 15.1069 22.645C15.2333 22.6152 15.3664 22.6368 15.4769 22.705L18.9169 24.875C19.0179 24.9492 19.0874 25.0586 19.1115 25.1815C19.1357 25.3045 19.1129 25.432 19.0475 25.5389C18.9821 25.6458 18.8789 25.7243 18.7584 25.7587C18.6379 25.7932 18.5089 25.7812 18.3969 25.725L15.7969 24.155C16.0231 25.5655 16.549 26.9112 17.339 28.1014C18.129 29.2916 19.1649 30.2988 20.3769 31.055ZM22.3769 20.585C22.9569 18.965 23.9769 17.845 24.6569 18.085C25.3369 18.325 25.4169 19.835 24.8369 21.465C24.2569 23.095 23.2369 24.205 22.5569 23.965C21.8769 23.725 21.7969 22.205 22.3369 20.585H22.3769ZM28.6069 20.405C29.1869 18.785 30.2069 17.665 30.8769 17.905C31.5469 18.145 31.6369 19.665 31.0569 21.285C30.4769 22.905 29.4569 24.025 28.7769 23.785C28.0969 23.545 27.9869 22.035 28.5669 20.405H28.6069Z" fill="#333333"/>
</g>
<defs>
<clipPath id="clip0_501_759">
<rect width="48" height="48" fill="white" transform="translate(0.796875 0.875)"/>
</clipPath>
</defs>
</svg>
