<svg width="560" height="142" viewBox="0 0 560 142" fill="none" xmlns="http://www.w3.org/2000/svg">
<rect x="29" y="29" width="40" height="40" rx="20" fill="#121212"/>
<g clip-path="url(#clip0_509_395)">
<path d="M58.2749 44H49.7749C49.6423 44 49.5151 43.9473 49.4213 43.8536C49.3276 43.7598 49.2749 43.6326 49.2749 43.5C49.2749 43.3674 49.3276 43.2402 49.4213 43.1464C49.5151 43.0527 49.6423 43 49.7749 43H58.2749C58.4075 43 58.5347 43.0527 58.6285 43.1464C58.7222 43.2402 58.7749 43.3674 58.7749 43.5C58.7749 43.6326 58.7222 43.7598 58.6285 43.8536C58.5347 43.9473 58.4075 44 58.2749 44Z" fill="#FAFAFA"/>
<path d="M54.45 48.05C54.3842 48.0504 54.319 48.0378 54.258 48.0129C54.1971 47.988 54.1417 47.9514 54.095 47.905C54.0481 47.8586 54.0109 47.8033 53.9856 47.7423C53.9602 47.6814 53.9471 47.616 53.9471 47.55C53.9471 47.484 53.9602 47.4187 53.9856 47.3578C54.0109 47.2968 54.0481 47.2415 54.095 47.195L57.795 43.5L54.095 39.805C54.0484 39.7584 54.0114 39.7031 53.9862 39.6422C53.9609 39.5813 53.948 39.516 53.948 39.45C53.948 39.3841 53.9609 39.3188 53.9862 39.2579C54.0114 39.197 54.0484 39.1417 54.095 39.095C54.1416 39.0484 54.197 39.0114 54.2579 38.9862C54.3188 38.961 54.3841 38.948 54.45 38.948C54.5159 38.948 54.5812 38.961 54.6421 38.9862C54.703 39.0114 54.7584 39.0484 54.805 39.095L58.855 43.145C58.9019 43.1915 58.9391 43.2468 58.9644 43.3078C58.9898 43.3687 59.0029 43.434 59.0029 43.5C59.0029 43.566 58.9898 43.6314 58.9644 43.6923C58.9391 43.7533 58.9019 43.8086 58.855 43.855L54.805 47.905C54.7583 47.9514 54.7029 47.988 54.642 48.0129C54.581 48.0378 54.5158 48.0504 54.45 48.05V48.05ZM48 55H39.5C39.3674 55 39.2402 54.9474 39.1464 54.8536C39.0527 54.7598 39 54.6327 39 54.5C39 54.3674 39.0527 54.2403 39.1464 54.1465C39.2402 54.0527 39.3674 54 39.5 54H48C48.1326 54 48.2598 54.0527 48.3536 54.1465C48.4473 54.2403 48.5 54.3674 48.5 54.5C48.5 54.6327 48.4473 54.7598 48.3536 54.8536C48.2598 54.9474 48.1326 55 48 55Z" fill="#FAFAFA"/>
<path d="M43.56 59.05C43.4288 59.0494 43.3031 58.9974 43.21 58.905L39.155 54.855C39.1081 54.8085 39.0709 54.7532 39.0456 54.6923C39.0202 54.6314 39.0071 54.566 39.0071 54.5C39.0071 54.434 39.0202 54.3686 39.0456 54.3077C39.0709 54.2468 39.1081 54.1915 39.155 54.145L43.21 50.095C43.3037 50.0019 43.4304 49.9496 43.5625 49.9496C43.6946 49.9496 43.8213 50.0019 43.915 50.095C43.9619 50.1415 43.9991 50.1968 44.0244 50.2577C44.0498 50.3186 44.0629 50.384 44.0629 50.45C44.0629 50.516 44.0498 50.5814 44.0244 50.6423C43.9991 50.7032 43.9619 50.7585 43.915 50.805L40.22 54.5L43.915 58.195C43.9619 58.2415 43.9991 58.2968 44.0244 58.3577C44.0498 58.4186 44.0629 58.484 44.0629 58.55C44.0629 58.616 44.0498 58.6814 44.0244 58.7423C43.9991 58.8032 43.9619 58.8585 43.915 58.905C43.8683 58.9513 43.8129 58.988 43.752 59.0129C43.691 59.0378 43.6258 59.0504 43.56 59.05V59.05ZM43 47.5C42.2089 47.5 41.4355 47.2654 40.7777 46.8259C40.1199 46.3864 39.6072 45.7616 39.3045 45.0307C39.0017 44.2998 38.9225 43.4956 39.0769 42.7196C39.2312 41.9437 39.6122 41.231 40.1716 40.6716C40.731 40.1122 41.4437 39.7312 42.2196 39.5769C42.9956 39.4225 43.7998 39.5017 44.5307 39.8045C45.2616 40.1072 45.8864 40.6199 46.3259 41.2777C46.7654 41.9355 47 42.7089 47 43.5C47 44.5609 46.5786 45.5783 45.8284 46.3284C45.0783 47.0786 44.0609 47.5 43 47.5V47.5ZM43 40.5C42.4067 40.5 41.8266 40.6759 41.3333 41.0056C40.8399 41.3352 40.4554 41.8038 40.2284 42.352C40.0013 42.9001 39.9419 43.5033 40.0576 44.0853C40.1734 44.6672 40.4591 45.2018 40.8787 45.6213C41.2982 46.0409 41.8328 46.3266 42.4147 46.4424C42.9967 46.5581 43.5999 46.4987 44.1481 46.2716C44.6962 46.0446 45.1648 45.6601 45.4944 45.1667C45.8241 44.6734 46 44.0933 46 43.5C46 42.7044 45.6839 41.9413 45.1213 41.3787C44.5587 40.8161 43.7957 40.5 43 40.5ZM58.5 59H51.5C51.3674 59 51.2402 58.9473 51.1464 58.8536C51.0527 58.7598 51 58.6326 51 58.5V50.5C51 50.3674 51.0527 50.2402 51.1464 50.1464C51.2402 50.0527 51.3674 50 51.5 50H58.5C58.6326 50 58.7598 50.0527 58.8536 50.1464C58.9473 50.2402 59 50.3674 59 50.5V58.5C59 58.6326 58.9473 58.7598 58.8536 58.8536C58.7598 58.9473 58.6326 59 58.5 59ZM52 58H58V51H52V58Z" fill="#FAFAFA"/>
</g>
<path d="M97.5813 46.5373C97.4783 46.2141 97.3398 45.9247 97.1658 45.669C96.9954 45.4098 96.7912 45.1896 96.5533 45.0085C96.3153 44.8239 96.0437 44.6836 95.7383 44.5877C95.4364 44.4918 95.1044 44.4439 94.7422 44.4439C94.1278 44.4439 93.5739 44.6019 93.0803 44.918C92.5866 45.234 92.196 45.6974 91.9084 46.3082C91.6243 46.9155 91.4822 47.6594 91.4822 48.5401C91.4822 49.4244 91.6261 50.1719 91.9137 50.7827C92.2013 51.3935 92.5955 51.8569 93.0962 52.1729C93.5969 52.489 94.1669 52.647 94.8061 52.647C95.3991 52.647 95.9158 52.5263 96.3562 52.2848C96.8001 52.0433 97.1428 51.7024 97.3842 51.2621C97.6293 50.8182 97.7518 50.2962 97.7518 49.696L98.1779 49.7759H95.0565V48.4176H99.3445V49.6587C99.3445 50.5749 99.1491 51.3704 98.7585 52.0451C98.3714 52.7163 97.8352 53.2347 97.1499 53.6005C96.468 53.9663 95.6868 54.1491 94.8061 54.1491C93.8189 54.1491 92.9524 53.9219 92.2067 53.4673C91.4645 53.0128 90.8857 52.3683 90.4702 51.5337C90.0547 50.6957 89.8469 49.7013 89.8469 48.5508C89.8469 47.6808 89.9677 46.8995 90.2092 46.207C90.4506 45.5146 90.7898 44.9268 91.2266 44.4439C91.6669 43.9574 92.1836 43.5863 92.7766 43.3306C93.3732 43.0714 94.0249 42.9418 94.7315 42.9418C95.321 42.9418 95.8697 43.0288 96.3775 43.2028C96.8888 43.3768 97.3434 43.6236 97.7411 43.9432C98.1424 44.2628 98.4744 44.6428 98.7372 45.0831C99 45.5199 99.1776 46.0046 99.2699 46.5373H97.5813ZM104.832 54.1651C104.026 54.1651 103.332 53.9929 102.75 53.6484C102.171 53.3004 101.723 52.8121 101.407 52.1836C101.095 51.5515 100.938 50.8111 100.938 49.9624C100.938 49.1243 101.095 48.3857 101.407 47.7464C101.723 47.1072 102.164 46.6083 102.728 46.2496C103.296 45.891 103.96 45.7116 104.72 45.7116C105.182 45.7116 105.63 45.788 106.063 45.9407C106.496 46.0934 106.885 46.3331 107.229 46.6598C107.574 46.9865 107.845 47.4109 108.044 47.9329C108.243 48.4513 108.343 49.0817 108.343 49.8239V50.3885H101.839V49.1953H106.782C106.782 48.7763 106.697 48.4052 106.526 48.082C106.356 47.7553 106.116 47.4979 105.807 47.3097C105.502 47.1214 105.143 47.0273 104.731 47.0273C104.284 47.0273 103.893 47.1374 103.559 47.3576C103.229 47.5742 102.973 47.8583 102.792 48.2099C102.615 48.5579 102.526 48.9361 102.526 49.3445V50.2766C102.526 50.8235 102.622 51.2887 102.813 51.6722C103.009 52.0558 103.28 52.3487 103.628 52.5511C103.976 52.75 104.383 52.8494 104.848 52.8494C105.15 52.8494 105.425 52.8068 105.674 52.7216C105.922 52.6328 106.137 52.5014 106.318 52.3274C106.5 52.1534 106.638 51.9386 106.734 51.6829L108.241 51.9545C108.121 52.3984 107.904 52.7873 107.592 53.1211C107.283 53.4513 106.894 53.7088 106.425 53.8935C105.96 54.0746 105.429 54.1651 104.832 54.1651ZM113.929 45.8182V47.0966H109.46V45.8182H113.929ZM110.658 43.858H112.251V51.5977C112.251 51.9066 112.297 52.1392 112.39 52.2955C112.482 52.4482 112.601 52.5529 112.746 52.6097C112.896 52.663 113.057 52.6896 113.231 52.6896C113.359 52.6896 113.471 52.6808 113.567 52.663C113.663 52.6452 113.737 52.631 113.79 52.6204L114.078 53.9361C113.986 53.9716 113.854 54.0071 113.684 54.0426C113.513 54.0817 113.3 54.103 113.045 54.1065C112.626 54.1136 112.235 54.0391 111.873 53.8828C111.511 53.7266 111.218 53.4851 110.994 53.1584C110.77 52.8317 110.658 52.4215 110.658 51.9279V43.858ZM123.48 45.8182V47.0966H119.011V45.8182H123.48ZM120.209 43.858H121.802V51.5977C121.802 51.9066 121.848 52.1392 121.94 52.2955C122.033 52.4482 122.152 52.5529 122.297 52.6097C122.446 52.663 122.608 52.6896 122.782 52.6896C122.91 52.6896 123.022 52.6808 123.118 52.663C123.213 52.6452 123.288 52.631 123.341 52.6204L123.629 53.9361C123.537 53.9716 123.405 54.0071 123.235 54.0426C123.064 54.0817 122.851 54.103 122.596 54.1065C122.176 54.1136 121.786 54.0391 121.424 53.8828C121.061 53.7266 120.768 53.4851 120.545 53.1584C120.321 52.8317 120.209 52.4215 120.209 51.9279V43.858ZM127.01 49.142V54H125.417V43.0909H126.989V47.1499H127.09C127.282 46.7095 127.575 46.3597 127.969 46.1005C128.363 45.8413 128.878 45.7116 129.514 45.7116C130.075 45.7116 130.565 45.8271 130.984 46.0579C131.406 46.2887 131.733 46.6332 131.964 47.0913C132.198 47.5458 132.315 48.114 132.315 48.7958V54H130.723V48.9876C130.723 48.3874 130.568 47.9222 130.259 47.592C129.95 47.2582 129.521 47.0913 128.97 47.0913C128.594 47.0913 128.256 47.1712 127.958 47.331C127.663 47.4908 127.431 47.7251 127.26 48.0341C127.093 48.3395 127.01 48.7088 127.01 49.142ZM134.441 54V45.8182H136.033V54H134.441ZM135.245 44.5558C134.968 44.5558 134.73 44.4634 134.531 44.2788C134.336 44.0906 134.238 43.8668 134.238 43.6076C134.238 43.3448 134.336 43.1211 134.531 42.9364C134.73 42.7482 134.968 42.6541 135.245 42.6541C135.522 42.6541 135.758 42.7482 135.954 42.9364C136.152 43.1211 136.252 43.3448 136.252 43.6076C136.252 43.8668 136.152 44.0906 135.954 44.2788C135.758 44.4634 135.522 44.5558 135.245 44.5558ZM144.307 47.8157L142.864 48.0714C142.803 47.8867 142.707 47.7109 142.576 47.544C142.448 47.3771 142.274 47.2404 142.054 47.1339C141.834 47.0273 141.559 46.9741 141.228 46.9741C140.777 46.9741 140.401 47.0753 140.099 47.2777C139.797 47.4766 139.646 47.734 139.646 48.0501C139.646 48.3235 139.748 48.5437 139.95 48.7106C140.152 48.8775 140.479 49.0142 140.93 49.1207L142.23 49.419C142.983 49.593 143.544 49.8612 143.913 50.2234C144.282 50.5856 144.467 51.0561 144.467 51.6349C144.467 52.125 144.325 52.5618 144.041 52.9453C143.76 53.3253 143.368 53.6236 142.864 53.8402C142.363 54.0568 141.782 54.1651 141.122 54.1651C140.206 54.1651 139.458 53.9698 138.879 53.5792C138.3 53.185 137.945 52.6257 137.814 51.9013L139.353 51.6669C139.449 52.0682 139.646 52.3718 139.945 52.5778C140.243 52.7802 140.632 52.8814 141.111 52.8814C141.633 52.8814 142.05 52.7731 142.363 52.5565C142.675 52.3363 142.832 52.0682 142.832 51.7521C142.832 51.4964 142.736 51.2816 142.544 51.1076C142.356 50.9336 142.066 50.8022 141.676 50.7134L140.291 50.4098C139.527 50.2358 138.963 49.9588 138.597 49.5788C138.235 49.1989 138.054 48.7177 138.054 48.1353C138.054 47.6523 138.189 47.2298 138.458 46.8675C138.728 46.5053 139.101 46.223 139.577 46.0206C140.053 45.8146 140.598 45.7116 141.212 45.7116C142.097 45.7116 142.793 45.9034 143.3 46.2869C143.808 46.6669 144.144 47.1765 144.307 47.8157ZM154.082 45.8182V47.0966H149.458V45.8182H154.082ZM150.726 54V44.87C150.726 44.3587 150.838 43.9343 151.061 43.5969C151.285 43.256 151.582 43.0021 151.951 42.8352C152.32 42.6648 152.722 42.5795 153.155 42.5795C153.474 42.5795 153.748 42.6062 153.975 42.6594C154.202 42.7092 154.371 42.7553 154.481 42.7979L154.108 44.087C154.034 44.0657 153.938 44.0408 153.821 44.0124C153.703 43.9805 153.561 43.9645 153.395 43.9645C153.007 43.9645 152.73 44.0604 152.564 44.2521C152.4 44.4439 152.319 44.7209 152.319 45.0831V54H150.726ZM158.849 54.1651C158.082 54.1651 157.413 53.9893 156.841 53.6378C156.269 53.2862 155.825 52.7944 155.509 52.1623C155.193 51.5302 155.035 50.7915 155.035 49.9464C155.035 49.0977 155.193 48.3555 155.509 47.7198C155.825 47.0842 156.269 46.5906 156.841 46.239C157.413 45.8874 158.082 45.7116 158.849 45.7116C159.616 45.7116 160.286 45.8874 160.857 46.239C161.429 46.5906 161.873 47.0842 162.189 47.7198C162.505 48.3555 162.663 49.0977 162.663 49.9464C162.663 50.7915 162.505 51.5302 162.189 52.1623C161.873 52.7944 161.429 53.2862 160.857 53.6378C160.286 53.9893 159.616 54.1651 158.849 54.1651ZM158.854 52.8281C159.352 52.8281 159.763 52.6967 160.09 52.4339C160.417 52.1712 160.658 51.8214 160.815 51.3846C160.974 50.9478 161.054 50.4666 161.054 49.9411C161.054 49.419 160.974 48.9396 160.815 48.5028C160.658 48.0625 160.417 47.7092 160.09 47.4428C159.763 47.1765 159.352 47.0433 158.854 47.0433C158.354 47.0433 157.938 47.1765 157.608 47.4428C157.281 47.7092 157.038 48.0625 156.878 48.5028C156.722 48.9396 156.644 49.419 156.644 49.9411C156.644 50.4666 156.722 50.9478 156.878 51.3846C157.038 51.8214 157.281 52.1712 157.608 52.4339C157.938 52.6967 158.354 52.8281 158.854 52.8281ZM164.441 54V45.8182H165.98V47.1179H166.065C166.215 46.6776 166.477 46.3313 166.854 46.0792C167.234 45.8235 167.663 45.6957 168.143 45.6957C168.242 45.6957 168.359 45.6992 168.494 45.7063C168.633 45.7134 168.741 45.7223 168.819 45.733V47.2564C168.755 47.2386 168.642 47.2191 168.478 47.1978C168.315 47.1729 168.152 47.1605 167.988 47.1605C167.612 47.1605 167.276 47.2404 166.982 47.4002C166.69 47.5565 166.46 47.7749 166.289 48.0554C166.119 48.3324 166.033 48.6484 166.033 49.0036V54H164.441ZM177.694 54.1651C176.888 54.1651 176.193 53.9929 175.611 53.6484C175.032 53.3004 174.585 52.8121 174.269 52.1836C173.956 51.5515 173.8 50.8111 173.8 49.9624C173.8 49.1243 173.956 48.3857 174.269 47.7464C174.585 47.1072 175.025 46.6083 175.59 46.2496C176.158 45.891 176.822 45.7116 177.582 45.7116C178.043 45.7116 178.491 45.788 178.924 45.9407C179.357 46.0934 179.746 46.3331 180.091 46.6598C180.435 46.9865 180.707 47.4109 180.906 47.9329C181.104 48.4513 181.204 49.0817 181.204 49.8239V50.3885H174.7V49.1953H179.643C179.643 48.7763 179.558 48.4052 179.388 48.082C179.217 47.7553 178.977 47.4979 178.668 47.3097C178.363 47.1214 178.004 47.0273 177.592 47.0273C177.145 47.0273 176.754 47.1374 176.421 47.3576C176.09 47.5742 175.835 47.8583 175.653 48.2099C175.476 48.5579 175.387 48.9361 175.387 49.3445V50.2766C175.387 50.8235 175.483 51.2887 175.675 51.6722C175.87 52.0558 176.142 52.3487 176.49 52.5511C176.838 52.75 177.244 52.8494 177.71 52.8494C178.011 52.8494 178.287 52.8068 178.535 52.7216C178.784 52.6328 178.999 52.5014 179.18 52.3274C179.361 52.1534 179.499 51.9386 179.595 51.6829L181.103 51.9545C180.982 52.3984 180.765 52.7873 180.453 53.1211C180.144 53.4513 179.755 53.7088 179.286 53.8935C178.821 54.0746 178.29 54.1651 177.694 54.1651ZM189.736 45.8182L186.769 54H185.064L182.092 45.8182H183.802L185.874 52.1143H185.959L188.026 45.8182H189.736ZM194.481 54.1651C193.675 54.1651 192.98 53.9929 192.398 53.6484C191.819 53.3004 191.372 52.8121 191.056 52.1836C190.743 51.5515 190.587 50.8111 190.587 49.9624C190.587 49.1243 190.743 48.3857 191.056 47.7464C191.372 47.1072 191.812 46.6083 192.377 46.2496C192.945 45.891 193.609 45.7116 194.369 45.7116C194.831 45.7116 195.278 45.788 195.711 45.9407C196.144 46.0934 196.533 46.3331 196.878 46.6598C197.222 46.9865 197.494 47.4109 197.693 47.9329C197.892 48.4513 197.991 49.0817 197.991 49.8239V50.3885H191.487V49.1953H196.43C196.43 48.7763 196.345 48.4052 196.175 48.082C196.004 47.7553 195.764 47.4979 195.456 47.3097C195.15 47.1214 194.791 47.0273 194.38 47.0273C193.932 47.0273 193.541 47.1374 193.208 47.3576C192.877 47.5742 192.622 47.8583 192.441 48.2099C192.263 48.5579 192.174 48.9361 192.174 49.3445V50.2766C192.174 50.8235 192.27 51.2887 192.462 51.6722C192.657 52.0558 192.929 52.3487 193.277 52.5511C193.625 52.75 194.032 52.8494 194.497 52.8494C194.799 52.8494 195.074 52.8068 195.322 52.7216C195.571 52.6328 195.786 52.5014 195.967 52.3274C196.148 52.1534 196.286 51.9386 196.382 51.6829L197.89 51.9545C197.769 52.3984 197.552 52.7873 197.24 53.1211C196.931 53.4513 196.542 53.7088 196.073 53.8935C195.608 54.0746 195.077 54.1651 194.481 54.1651ZM201.351 49.142V54H199.758V45.8182H201.287V47.1499H201.388C201.576 46.7166 201.871 46.3686 202.272 46.1058C202.677 45.843 203.187 45.7116 203.801 45.7116C204.359 45.7116 204.847 45.8288 205.266 46.0632C205.685 46.294 206.01 46.6385 206.241 47.0966C206.472 47.5547 206.587 48.1211 206.587 48.7958V54H204.994V48.9876C204.994 48.3945 204.84 47.9311 204.531 47.5973C204.222 47.2599 203.798 47.0913 203.258 47.0913C202.888 47.0913 202.56 47.1712 202.272 47.331C201.988 47.4908 201.763 47.7251 201.596 48.0341C201.433 48.3395 201.351 48.7088 201.351 49.142ZM214.285 43.0909V54H212.693V43.0909H214.285ZM219.954 54.1651C219.148 54.1651 218.454 53.9929 217.872 53.6484C217.293 53.3004 216.845 52.8121 216.529 52.1836C216.217 51.5515 216.061 50.8111 216.061 49.9624C216.061 49.1243 216.217 48.3857 216.529 47.7464C216.845 47.1072 217.286 46.6083 217.85 46.2496C218.419 45.891 219.083 45.7116 219.843 45.7116C220.304 45.7116 220.752 45.788 221.185 45.9407C221.618 46.0934 222.007 46.3331 222.351 46.6598C222.696 46.9865 222.968 47.4109 223.166 47.9329C223.365 48.4513 223.465 49.0817 223.465 49.8239V50.3885H216.961V49.1953H221.904C221.904 48.7763 221.819 48.4052 221.648 48.082C221.478 47.7553 221.238 47.4979 220.929 47.3097C220.624 47.1214 220.265 47.0273 219.853 47.0273C219.406 47.0273 219.015 47.1374 218.681 47.3576C218.351 47.5742 218.095 47.8583 217.914 48.2099C217.737 48.5579 217.648 48.9361 217.648 49.3445V50.2766C217.648 50.8235 217.744 51.2887 217.936 51.6722C218.131 52.0558 218.403 52.3487 218.751 52.5511C219.099 52.75 219.505 52.8494 219.97 52.8494C220.272 52.8494 220.547 52.8068 220.796 52.7216C221.045 52.6328 221.259 52.5014 221.441 52.3274C221.622 52.1534 221.76 51.9386 221.856 51.6829L223.363 51.9545C223.243 52.3984 223.026 52.7873 222.714 53.1211C222.405 53.4513 222.016 53.7088 221.547 53.8935C221.082 54.0746 220.551 54.1651 219.954 54.1651ZM231.363 47.8157L229.919 48.0714C229.859 47.8867 229.763 47.7109 229.632 47.544C229.504 47.3771 229.33 47.2404 229.11 47.1339C228.889 47.0273 228.614 46.9741 228.284 46.9741C227.833 46.9741 227.457 47.0753 227.155 47.2777C226.853 47.4766 226.702 47.734 226.702 48.0501C226.702 48.3235 226.803 48.5437 227.006 48.7106C227.208 48.8775 227.535 49.0142 227.986 49.1207L229.285 49.419C230.038 49.593 230.599 49.8612 230.969 50.2234C231.338 50.5856 231.523 51.0561 231.523 51.6349C231.523 52.125 231.381 52.5618 231.097 52.9453C230.816 53.3253 230.424 53.6236 229.919 53.8402C229.419 54.0568 228.838 54.1651 228.177 54.1651C227.261 54.1651 226.514 53.9698 225.935 53.5792C225.356 53.185 225.001 52.6257 224.87 51.9013L226.409 51.6669C226.505 52.0682 226.702 52.3718 227 52.5778C227.299 52.7802 227.687 52.8814 228.167 52.8814C228.689 52.8814 229.106 52.7731 229.419 52.5565C229.731 52.3363 229.887 52.0682 229.887 51.7521C229.887 51.4964 229.791 51.2816 229.6 51.1076C229.411 50.9336 229.122 50.8022 228.731 50.7134L227.347 50.4098C226.583 50.2358 226.018 49.9588 225.653 49.5788C225.29 49.1989 225.109 48.7177 225.109 48.1353C225.109 47.6523 225.244 47.2298 225.514 46.8675C225.784 46.5053 226.157 46.223 226.633 46.0206C227.109 45.8146 227.654 45.7116 228.268 45.7116C229.152 45.7116 229.848 45.9034 230.356 46.2869C230.864 46.6669 231.199 47.1765 231.363 47.8157ZM239.405 47.8157L237.961 48.0714C237.901 47.8867 237.805 47.7109 237.674 47.544C237.546 47.3771 237.372 47.2404 237.152 47.1339C236.931 47.0273 236.656 46.9741 236.326 46.9741C235.875 46.9741 235.499 47.0753 235.197 47.2777C234.895 47.4766 234.744 47.734 234.744 48.0501C234.744 48.3235 234.845 48.5437 235.048 48.7106C235.25 48.8775 235.577 49.0142 236.028 49.1207L237.327 49.419C238.08 49.593 238.641 49.8612 239.011 50.2234C239.38 50.5856 239.565 51.0561 239.565 51.6349C239.565 52.125 239.423 52.5618 239.138 52.9453C238.858 53.3253 238.466 53.6236 237.961 53.8402C237.461 54.0568 236.88 54.1651 236.219 54.1651C235.303 54.1651 234.556 53.9698 233.977 53.5792C233.398 53.185 233.043 52.6257 232.912 51.9013L234.451 51.6669C234.547 52.0682 234.744 52.3718 235.042 52.5778C235.341 52.7802 235.729 52.8814 236.209 52.8814C236.731 52.8814 237.148 52.7731 237.461 52.5565C237.773 52.3363 237.929 52.0682 237.929 51.7521C237.929 51.4964 237.833 51.2816 237.642 51.1076C237.453 50.9336 237.164 50.8022 236.773 50.7134L235.388 50.4098C234.625 50.2358 234.06 49.9588 233.695 49.5788C233.332 49.1989 233.151 48.7177 233.151 48.1353C233.151 47.6523 233.286 47.2298 233.556 46.8675C233.826 46.5053 234.199 46.223 234.675 46.0206C235.151 45.8146 235.696 45.7116 236.31 45.7116C237.194 45.7116 237.89 45.9034 238.398 46.2869C238.906 46.6669 239.241 47.1765 239.405 47.8157Z" fill="#111111"/>
<g clip-path="url(#clip1_509_395)">
<path d="M527 59C525.022 59 523.089 58.4135 521.444 57.3147C519.8 56.2159 518.518 54.6541 517.761 52.8268C517.004 50.9996 516.806 48.9889 517.192 47.0491C517.578 45.1093 518.53 43.3275 519.929 41.9289C521.327 40.5304 523.109 39.578 525.049 39.1922C526.989 38.8063 529 39.0043 530.827 39.7612C532.654 40.5181 534.216 41.7998 535.315 43.4443C536.414 45.0888 537 47.0222 537 49C537 51.6522 535.946 54.1957 534.071 56.0711C532.196 57.9464 529.652 59 527 59V59ZM527 40C525.22 40 523.48 40.5278 522 41.5168C520.52 42.5057 519.366 43.9113 518.685 45.5559C518.004 47.2004 517.826 49.01 518.173 50.7558C518.52 52.5016 519.377 54.1053 520.636 55.364C521.895 56.6226 523.498 57.4798 525.244 57.8271C526.99 58.1743 528.8 57.9961 530.444 57.3149C532.089 56.6337 533.494 55.4802 534.483 54.0001C535.472 52.5201 536 50.78 536 49C536 46.6131 535.052 44.3239 533.364 42.636C531.676 40.9482 529.387 40 527 40V40Z" fill="#121212"/>
<path d="M527.5 54C527.367 54 527.24 53.9473 527.146 53.8536C527.053 53.7598 527 53.6326 527 53.5V46.5C527 46.3674 527.053 46.2402 527.146 46.1464C527.24 46.0527 527.367 46 527.5 46C527.633 46 527.76 46.0527 527.854 46.1464C527.947 46.2402 528 46.3674 528 46.5V53.5C528 53.6326 527.947 53.7598 527.854 53.8536C527.76 53.9473 527.633 54 527.5 54ZM527 44H528V45H527V44Z" fill="#121212"/>
<path d="M529.5 54H525.5C525.367 54 525.24 53.9473 525.146 53.8536C525.053 53.7598 525 53.6326 525 53.5C525 53.3674 525.053 53.2402 525.146 53.1464C525.24 53.0527 525.367 53 525.5 53H529.5C529.633 53 529.76 53.0527 529.854 53.1464C529.947 53.2402 530 53.3674 530 53.5C530 53.6326 529.947 53.7598 529.854 53.8536C529.76 53.9473 529.633 54 529.5 54ZM527.5 47H526C525.867 47 525.74 46.9473 525.646 46.8536C525.553 46.7598 525.5 46.6326 525.5 46.5C525.5 46.3674 525.553 46.2402 525.646 46.1464C525.74 46.0527 525.867 46 526 46H527.5C527.633 46 527.76 46.0527 527.854 46.1464C527.947 46.2402 528 46.3674 528 46.5C528 46.6326 527.947 46.7598 527.854 46.8536C527.76 46.9473 527.633 47 527.5 47Z" fill="#121212"/>
</g>
<path d="M26.3665 98V88.5455H26.9435V97.4645H31.56V98H26.3665ZM33.5082 98V90.9091H34.0668V98H33.5082ZM33.7898 89.6534C33.6667 89.6534 33.5589 89.6103 33.4666 89.5241C33.3774 89.438 33.3327 89.3333 33.3327 89.2102C33.3327 89.0871 33.3774 88.9825 33.4666 88.8963C33.5559 88.8101 33.6636 88.767 33.7898 88.767C33.9129 88.767 34.0191 88.8101 34.1083 88.8963C34.2006 88.9825 34.2468 89.0871 34.2468 89.2102C34.2468 89.3333 34.2022 89.438 34.1129 89.5241C34.0237 89.6103 33.916 89.6534 33.7898 89.6534ZM36.9151 95.2301L36.9059 94.4222H37.0536L40.5991 90.9091H41.3331L38.0785 94.1406L38.0231 94.1637L36.9151 95.2301ZM36.4258 98V88.5455H36.989V98H36.4258ZM40.7607 98L37.7692 94.2191L38.1754 93.8452L41.4808 98H40.7607ZM45.4752 98.1477C44.8351 98.1477 44.278 97.9892 43.8041 97.6722C43.3301 97.3552 42.9639 96.9213 42.7053 96.3704C42.4468 95.8195 42.3176 95.1916 42.3176 94.4869C42.3176 93.779 42.4468 93.1481 42.7053 92.5941C42.9669 92.0401 43.3255 91.6031 43.781 91.283C44.2365 90.9629 44.7566 90.8029 45.3414 90.8029C45.7384 90.8029 46.1138 90.8829 46.4678 91.043C46.8248 91.1999 47.1387 91.4277 47.4095 91.7262C47.6834 92.0247 47.8973 92.3848 48.0512 92.8065C48.2082 93.2281 48.2867 93.7021 48.2867 94.2283V94.5792H42.673V94.0668H47.7235C47.7235 93.5528 47.6188 93.0896 47.4095 92.6772C47.2003 92.2648 46.9156 91.937 46.5555 91.6939C46.1954 91.4508 45.7907 91.3292 45.3414 91.3292C44.8705 91.3292 44.4504 91.4615 44.0811 91.7262C43.7148 91.9878 43.424 92.3417 43.2085 92.788C42.9962 93.2343 42.8854 93.7328 42.8762 94.2837V94.5146C42.8762 95.1055 42.9793 95.6364 43.1855 96.1072C43.3947 96.575 43.6933 96.9459 44.0811 97.2198C44.4688 97.4906 44.9336 97.6261 45.4752 97.6261C45.863 97.6261 46.1939 97.5614 46.4678 97.4322C46.7448 97.2998 46.971 97.1398 47.1464 96.9521C47.3218 96.7643 47.4542 96.5827 47.5434 96.4073L48.0558 96.6151C47.9481 96.852 47.7804 97.089 47.5526 97.326C47.328 97.5599 47.0418 97.7553 46.694 97.9123C46.3493 98.0692 45.943 98.1477 45.4752 98.1477ZM62.3958 92.6403L61.1447 92.8619C61.0924 92.7018 61.0093 92.5495 60.8954 92.4048C60.7846 92.2602 60.6338 92.1417 60.443 92.0494C60.2522 91.957 60.0137 91.9109 59.7275 91.9109C59.3366 91.9109 59.0104 91.9986 58.7488 92.174C58.4872 92.3464 58.3564 92.5695 58.3564 92.8434C58.3564 93.0804 58.4441 93.2712 58.6195 93.4158C58.7949 93.5605 59.0781 93.679 59.4689 93.7713L60.5953 94.0298C61.2478 94.1806 61.7341 94.413 62.0542 94.7269C62.3742 95.0408 62.5343 95.4486 62.5343 95.9503C62.5343 96.375 62.4112 96.7536 62.165 97.0859C61.9218 97.4152 61.5817 97.6738 61.1447 97.8615C60.7108 98.0492 60.2076 98.1431 59.6351 98.1431C58.8411 98.1431 58.1932 97.9738 57.6916 97.6353C57.1899 97.2937 56.8822 96.8089 56.7683 96.1811L58.1025 95.978C58.1855 96.3258 58.3564 96.5889 58.6149 96.7674C58.8734 96.9428 59.2104 97.0305 59.6259 97.0305C60.0783 97.0305 60.4399 96.9367 60.7108 96.7489C60.9816 96.5581 61.117 96.3258 61.117 96.0518C61.117 95.8303 61.0339 95.6441 60.8677 95.4933C60.7046 95.3424 60.4538 95.2286 60.1152 95.1516L58.915 94.8885C58.2533 94.7377 57.7639 94.4976 57.4469 94.1683C57.133 93.839 56.976 93.422 56.976 92.9173C56.976 92.4987 57.093 92.1325 57.3269 91.8185C57.5608 91.5046 57.8839 91.2599 58.2963 91.0845C58.7087 90.906 59.1812 90.8168 59.7136 90.8168C60.4799 90.8168 61.0832 90.983 61.5233 91.3153C61.9634 91.6446 62.2542 92.0863 62.3958 92.6403ZM67.3619 90.9091V92.017H63.4887V90.9091H67.3619ZM64.5274 89.2102H65.9078V95.918C65.9078 96.1857 65.9478 96.3873 66.0278 96.5227C66.1078 96.6551 66.2109 96.7459 66.3371 96.7951C66.4664 96.8413 66.6064 96.8643 66.7572 96.8643C66.868 96.8643 66.9649 96.8567 67.048 96.8413C67.1311 96.8259 67.1958 96.8136 67.2419 96.8043L67.4912 97.9446C67.4112 97.9754 67.2973 98.0062 67.1496 98.0369C67.0019 98.0708 66.8172 98.0893 66.5956 98.0923C66.2325 98.0985 65.8939 98.0339 65.58 97.8984C65.2661 97.763 65.0122 97.5537 64.8183 97.2706C64.6244 96.9875 64.5274 96.632 64.5274 96.2042V89.2102ZM70.9524 98.157C70.5031 98.157 70.0968 98.0739 69.7337 97.9077C69.3705 97.7384 69.0827 97.4937 68.8704 97.1737C68.6611 96.8536 68.5565 96.4612 68.5565 95.9964C68.5565 95.5964 68.6334 95.267 68.7873 95.0085C68.9412 94.75 69.1489 94.5453 69.4105 94.3945C69.6721 94.2437 69.9645 94.1299 70.2876 94.0529C70.6108 93.976 70.9401 93.9175 71.2756 93.8775C71.7003 93.8282 72.045 93.7882 72.3097 93.7575C72.5743 93.7236 72.7667 93.6697 72.8867 93.5959C73.0067 93.522 73.0668 93.402 73.0668 93.2358V93.2035C73.0668 92.8003 72.9529 92.4879 72.7251 92.2663C72.5005 92.0447 72.165 91.9339 71.7188 91.9339C71.254 91.9339 70.8878 92.037 70.62 92.2433C70.3554 92.4464 70.1722 92.6726 70.0707 92.9219L68.7734 92.6264C68.9273 92.1955 69.152 91.8478 69.4474 91.5831C69.746 91.3153 70.0891 91.1214 70.4769 91.0014C70.8647 90.8783 71.2725 90.8168 71.7003 90.8168C71.9834 90.8168 72.2835 90.8506 72.6005 90.9183C72.9206 90.983 73.2191 91.103 73.4961 91.2784C73.7762 91.4538 74.0054 91.7047 74.1839 92.0309C74.3625 92.354 74.4517 92.7741 74.4517 93.2912V98H73.1037V97.0305H73.0483C72.959 97.209 72.8252 97.3845 72.6467 97.5568C72.4682 97.7292 72.2389 97.8723 71.9588 97.9862C71.6787 98.1 71.3433 98.157 70.9524 98.157ZM71.2525 97.049C71.6341 97.049 71.9603 96.9736 72.2312 96.8228C72.5051 96.672 72.7128 96.475 72.8544 96.2319C72.9991 95.9857 73.0714 95.7225 73.0714 95.4425V94.5284C73.0221 94.5777 72.9267 94.6238 72.7852 94.6669C72.6467 94.7069 72.4882 94.7423 72.3097 94.7731C72.1312 94.8008 71.9573 94.8269 71.788 94.8516C71.6187 94.8731 71.4772 94.8916 71.3633 94.907C71.0955 94.9408 70.8509 94.9978 70.6293 95.0778C70.4107 95.1578 70.2353 95.2732 70.103 95.424C69.9737 95.5717 69.9091 95.7687 69.9091 96.0149C69.9091 96.3565 70.0353 96.6151 70.2876 96.7905C70.54 96.9628 70.8616 97.049 71.2525 97.049ZM76.2902 98V90.9091H77.6244V92.0355H77.6982C77.8275 91.6539 78.0552 91.3538 78.3815 91.1353C78.7108 90.9137 79.0832 90.8029 79.4987 90.8029C79.5848 90.8029 79.6864 90.806 79.8034 90.8121C79.9234 90.8183 80.0173 90.826 80.085 90.8352V92.1555C80.0296 92.1402 79.9311 92.1232 79.7895 92.1048C79.6479 92.0832 79.5064 92.0724 79.3648 92.0724C79.0386 92.0724 78.7477 92.1417 78.4923 92.2802C78.2399 92.4156 78.0399 92.6049 77.8921 92.848C77.7444 93.0881 77.6705 93.362 77.6705 93.6697V98H76.2902ZM85.0084 90.9091V92.017H81.1352V90.9091H85.0084ZM82.1739 89.2102H83.5542V95.918C83.5542 96.1857 83.5943 96.3873 83.6743 96.5227C83.7543 96.6551 83.8574 96.7459 83.9836 96.7951C84.1128 96.8413 84.2529 96.8643 84.4037 96.8643C84.5145 96.8643 84.6114 96.8567 84.6945 96.8413C84.7776 96.8259 84.8422 96.8136 84.8884 96.8043L85.1377 97.9446C85.0577 97.9754 84.9438 98.0062 84.7961 98.0369C84.6483 98.0708 84.4637 98.0893 84.2421 98.0923C83.8789 98.0985 83.5404 98.0339 83.2265 97.8984C82.9126 97.763 82.6586 97.5537 82.4648 97.2706C82.2709 96.9875 82.1739 96.632 82.1739 96.2042V89.2102ZM86.5353 98V90.9091H87.9157V98H86.5353ZM87.2324 89.815C86.9924 89.815 86.7862 89.735 86.6138 89.5749C86.4445 89.4118 86.3599 89.2179 86.3599 88.9933C86.3599 88.7655 86.4445 88.5716 86.6138 88.4116C86.7862 88.2485 86.9924 88.1669 87.2324 88.1669C87.4725 88.1669 87.6771 88.2485 87.8464 88.4116C88.0188 88.5716 88.1049 88.7655 88.1049 88.9933C88.1049 89.2179 88.0188 89.4118 87.8464 89.5749C87.6771 89.735 87.4725 89.815 87.2324 89.815ZM91.153 93.7898V98H89.7726V90.9091H91.0976V92.0632H91.1853C91.3484 91.6877 91.6038 91.3861 91.9516 91.1584C92.3025 90.9306 92.7441 90.8168 93.2765 90.8168C93.7597 90.8168 94.1829 90.9183 94.5461 91.1214C94.9092 91.3215 95.1908 91.62 95.3909 92.017C95.5909 92.4141 95.691 92.9049 95.691 93.4897V98H94.3106V93.6559C94.3106 93.1419 94.1768 92.7403 93.909 92.451C93.6412 92.1586 93.2735 92.0124 92.8057 92.0124C92.4856 92.0124 92.2009 92.0817 91.9516 92.2202C91.7054 92.3587 91.51 92.5618 91.3653 92.8295C91.2238 93.0942 91.153 93.4143 91.153 93.7898ZM100.515 100.807C99.952 100.807 99.4672 100.733 99.061 100.585C98.6578 100.438 98.3285 100.242 98.0731 99.9989C97.8176 99.7558 97.6268 99.4896 97.5006 99.2003L98.6871 98.7109C98.7702 98.8464 98.8809 98.9895 99.0194 99.1403C99.161 99.2942 99.3518 99.425 99.5919 99.5327C99.835 99.6404 100.147 99.6942 100.529 99.6942C101.052 99.6942 101.485 99.5665 101.826 99.3111C102.168 99.0587 102.339 98.6555 102.339 98.1016V96.7074H102.251C102.168 96.8582 102.048 97.0259 101.891 97.2106C101.737 97.3952 101.525 97.5553 101.254 97.6907C100.983 97.8261 100.631 97.8938 100.197 97.8938C99.6365 97.8938 99.1318 97.763 98.6824 97.5014C98.2362 97.2367 97.8823 96.8474 97.6206 96.3335C97.3621 95.8164 97.2329 95.1809 97.2329 94.4268C97.2329 93.6728 97.3606 93.0265 97.616 92.4879C97.8746 91.9493 98.2285 91.5369 98.6778 91.2507C99.1272 90.9614 99.6365 90.8168 100.206 90.8168C100.646 90.8168 101.001 90.8906 101.272 91.0384C101.543 91.183 101.754 91.3523 101.905 91.5462C102.059 91.7401 102.177 91.9109 102.26 92.0586H102.362V90.9091H103.714V98.157C103.714 98.7663 103.573 99.2665 103.29 99.6573C103.007 100.048 102.623 100.337 102.14 100.525C101.66 100.713 101.118 100.807 100.515 100.807ZM100.501 96.7489C100.898 96.7489 101.234 96.6566 101.508 96.4719C101.785 96.2842 101.994 96.0165 102.136 95.6687C102.28 95.3178 102.353 94.8977 102.353 94.4084C102.353 93.9313 102.282 93.5112 102.14 93.1481C101.999 92.7849 101.791 92.5018 101.517 92.2987C101.243 92.0924 100.905 91.9893 100.501 91.9893C100.086 91.9893 99.7396 92.0971 99.4626 92.3125C99.1856 92.5249 98.9764 92.8142 98.8348 93.1804C98.6963 93.5466 98.627 93.956 98.627 94.4084C98.627 94.8731 98.6978 95.2809 98.8394 95.6317C98.981 95.9826 99.1903 96.2565 99.4672 96.4535C99.7473 96.6504 100.092 96.7489 100.501 96.7489ZM112.381 90.9091V92.017H108.374V90.9091H112.381ZM109.472 98V90.0874C109.472 89.6442 109.569 89.2764 109.763 88.984C109.957 88.6886 110.214 88.4685 110.534 88.3239C110.854 88.1761 111.202 88.1023 111.577 88.1023C111.854 88.1023 112.091 88.1254 112.288 88.1715C112.485 88.2146 112.632 88.2546 112.727 88.2915L112.404 89.4087C112.339 89.3903 112.256 89.3687 112.154 89.3441C112.053 89.3164 111.93 89.3026 111.785 89.3026C111.45 89.3026 111.21 89.3857 111.065 89.5518C110.923 89.718 110.853 89.9581 110.853 90.272V98H109.472ZM113.805 98V90.9091H115.139V92.0355H115.213C115.342 91.6539 115.57 91.3538 115.896 91.1353C116.225 90.9137 116.598 90.8029 117.013 90.8029C117.099 90.8029 117.201 90.806 117.318 90.8121C117.438 90.8183 117.532 90.826 117.6 90.8352V92.1555C117.544 92.1402 117.446 92.1232 117.304 92.1048C117.163 92.0832 117.021 92.0724 116.879 92.0724C116.553 92.0724 116.262 92.1417 116.007 92.2802C115.755 92.4156 115.555 92.6049 115.407 92.848C115.259 93.0881 115.185 93.362 115.185 93.6697V98H113.805ZM121.527 98.1431C120.862 98.1431 120.282 97.9908 119.787 97.6861C119.291 97.3814 118.906 96.9551 118.633 96.4073C118.359 95.8595 118.222 95.2193 118.222 94.4869C118.222 93.7513 118.359 93.1081 118.633 92.5572C118.906 92.0063 119.291 91.5785 119.787 91.2738C120.282 90.9691 120.862 90.8168 121.527 90.8168C122.192 90.8168 122.772 90.9691 123.267 91.2738C123.763 91.5785 124.148 92.0063 124.422 92.5572C124.696 93.1081 124.832 93.7513 124.832 94.4869C124.832 95.2193 124.696 95.8595 124.422 96.4073C124.148 96.9551 123.763 97.3814 123.267 97.6861C122.772 97.9908 122.192 98.1431 121.527 98.1431ZM121.532 96.9844C121.963 96.9844 122.32 96.8705 122.603 96.6428C122.886 96.415 123.095 96.1119 123.231 95.7333C123.369 95.3548 123.438 94.9377 123.438 94.4822C123.438 94.0298 123.369 93.6143 123.231 93.2358C123.095 92.8542 122.886 92.5479 122.603 92.3171C122.32 92.0863 121.963 91.9709 121.532 91.9709C121.098 91.9709 120.738 92.0863 120.451 92.3171C120.168 92.5479 119.957 92.8542 119.819 93.2358C119.684 93.6143 119.616 94.0298 119.616 94.4822C119.616 94.9377 119.684 95.3548 119.819 95.7333C119.957 96.1119 120.168 96.415 120.451 96.6428C120.738 96.8705 121.098 96.9844 121.532 96.9844ZM126.373 98V90.9091H127.698V92.0632H127.786C127.934 91.6723 128.175 91.3677 128.511 91.1491C128.846 90.9276 129.248 90.8168 129.716 90.8168C130.19 90.8168 130.587 90.9276 130.907 91.1491C131.23 91.3707 131.468 91.6754 131.622 92.0632H131.696C131.865 91.6847 132.135 91.383 132.504 91.1584C132.873 90.9306 133.313 90.8168 133.824 90.8168C134.467 90.8168 134.992 91.0183 135.398 91.4215C135.808 91.8247 136.012 92.4325 136.012 93.245V98H134.632V93.3743C134.632 92.8942 134.501 92.5464 134.24 92.331C133.978 92.1155 133.666 92.0078 133.303 92.0078C132.853 92.0078 132.504 92.1463 132.255 92.4233C132.005 92.6972 131.881 93.0496 131.881 93.4805V98H130.505V93.2866C130.505 92.9019 130.385 92.5926 130.145 92.3587C129.905 92.1248 129.592 92.0078 129.208 92.0078C128.946 92.0078 128.705 92.0771 128.483 92.2156C128.264 92.351 128.087 92.5402 127.952 92.7834C127.82 93.0265 127.754 93.3081 127.754 93.6282V98H126.373ZM144.202 99.1818V87.3636H144.959V99.1818H144.202ZM146.57 91.0291C146.521 90.5921 146.318 90.2536 145.961 90.0135C145.604 89.7704 145.155 89.6488 144.613 89.6488C144.225 89.6488 143.89 89.7103 143.607 89.8335C143.323 89.9535 143.103 90.1197 142.946 90.332C142.792 90.5413 142.716 90.7798 142.716 91.0476C142.716 91.2723 142.768 91.4661 142.873 91.6293C142.98 91.7924 143.12 91.9293 143.293 92.0401C143.468 92.1478 143.656 92.2386 143.856 92.3125C144.056 92.3833 144.248 92.4418 144.433 92.4879L145.356 92.728C145.658 92.8018 145.967 92.9019 146.284 93.0281C146.601 93.1542 146.895 93.3204 147.166 93.5266C147.437 93.7328 147.655 93.9883 147.821 94.293C147.991 94.5977 148.075 94.9624 148.075 95.3871C148.075 95.9226 147.937 96.3981 147.66 96.8136C147.386 97.229 146.987 97.5568 146.464 97.7969C145.944 98.0369 145.315 98.157 144.576 98.157C143.868 98.157 143.256 98.0446 142.739 97.82C142.222 97.5953 141.817 97.2768 141.525 96.8643C141.232 96.4489 141.071 95.9564 141.04 95.3871H142.471C142.499 95.7287 142.609 96.0134 142.803 96.2411C143 96.4658 143.251 96.6335 143.556 96.7443C143.864 96.852 144.201 96.9059 144.567 96.9059C144.97 96.9059 145.328 96.8428 145.642 96.7166C145.959 96.5874 146.209 96.4089 146.39 96.1811C146.572 95.9503 146.663 95.681 146.663 95.3732C146.663 95.0932 146.583 94.8639 146.423 94.6854C146.266 94.5069 146.052 94.3591 145.781 94.2422C145.513 94.1252 145.21 94.0221 144.871 93.9329L143.754 93.6282C142.997 93.422 142.397 93.1188 141.954 92.7188C141.514 92.3187 141.294 91.7893 141.294 91.1307C141.294 90.5859 141.441 90.1104 141.737 89.7042C142.032 89.2979 142.432 88.9825 142.937 88.7578C143.442 88.5301 144.011 88.4162 144.645 88.4162C145.285 88.4162 145.85 88.5285 146.339 88.7532C146.832 88.9779 147.22 89.2872 147.503 89.6811C147.786 90.072 147.934 90.5213 147.946 91.0291H146.57ZM152.771 98.1293C152.193 98.1293 151.673 98.0185 151.211 97.7969C150.752 97.5722 150.386 97.2644 150.112 96.8736C149.838 96.4827 149.692 96.0365 149.674 95.5348H151.059C151.093 95.9411 151.273 96.275 151.599 96.5366C151.925 96.7982 152.316 96.929 152.771 96.929C153.135 96.929 153.456 96.8459 153.736 96.6797C154.019 96.5104 154.241 96.2781 154.401 95.9826C154.564 95.6871 154.646 95.3501 154.646 94.9716C154.646 94.5869 154.563 94.2437 154.396 93.9421C154.23 93.6405 154.001 93.4035 153.709 93.2312C153.419 93.0588 153.087 92.9711 152.711 92.968C152.425 92.968 152.137 93.0173 151.848 93.1158C151.559 93.2143 151.325 93.3435 151.146 93.5036L149.84 93.3097L150.371 88.5455H155.569V89.7688H151.557L151.257 92.4141H151.313C151.497 92.2356 151.742 92.0863 152.047 91.9663C152.354 91.8462 152.684 91.7862 153.035 91.7862C153.61 91.7862 154.122 91.9232 154.572 92.1971C155.024 92.471 155.38 92.8449 155.638 93.3189C155.9 93.7898 156.029 94.3314 156.026 94.9439C156.029 95.5563 155.891 96.1026 155.611 96.5827C155.334 97.0629 154.949 97.4414 154.456 97.7184C153.967 97.9923 153.405 98.1293 152.771 98.1293ZM160.907 98.1293C160.245 98.1293 159.66 98.0154 159.153 97.7876C158.648 97.5599 158.252 97.246 157.966 96.8459C157.68 96.4458 157.538 95.9903 157.541 95.4794C157.538 95.0793 157.62 94.7115 157.786 94.3761C157.955 94.0375 158.185 93.7559 158.474 93.5312C158.763 93.3035 159.086 93.1589 159.443 93.0973V93.0419C158.972 92.928 158.595 92.6757 158.312 92.2848C158.029 91.8939 157.889 91.4446 157.892 90.9368C157.889 90.4536 158.017 90.0227 158.275 89.6442C158.537 89.2625 158.896 88.9625 159.351 88.744C159.807 88.5254 160.325 88.4162 160.907 88.4162C161.482 88.4162 161.996 88.527 162.449 88.7486C162.904 88.9671 163.263 89.2672 163.524 89.6488C163.786 90.0273 163.918 90.4567 163.921 90.9368C163.918 91.4446 163.774 91.8939 163.487 92.2848C163.201 92.6757 162.829 92.928 162.37 93.0419V93.0973C162.724 93.1589 163.043 93.3035 163.326 93.5312C163.612 93.7559 163.84 94.0375 164.009 94.3761C164.181 94.7115 164.269 95.0793 164.272 95.4794C164.269 95.9903 164.124 96.4458 163.838 96.8459C163.552 97.246 163.155 97.5599 162.647 97.7876C162.142 98.0154 161.562 98.1293 160.907 98.1293ZM160.907 96.9613C161.298 96.9613 161.636 96.8967 161.922 96.7674C162.209 96.6351 162.43 96.4519 162.587 96.218C162.744 95.9811 162.824 95.7041 162.827 95.3871C162.824 95.0578 162.738 94.7669 162.569 94.5146C162.403 94.2622 162.176 94.0637 161.89 93.919C161.604 93.7744 161.276 93.7021 160.907 93.7021C160.534 93.7021 160.204 93.7744 159.914 93.919C159.625 94.0637 159.397 94.2622 159.231 94.5146C159.065 94.7669 158.983 95.0578 158.986 95.3871C158.983 95.7041 159.059 95.9811 159.213 96.218C159.369 96.4519 159.593 96.6351 159.882 96.7674C160.171 96.8967 160.513 96.9613 160.907 96.9613ZM160.907 92.5618C161.221 92.5618 161.499 92.4987 161.742 92.3725C161.985 92.2463 162.176 92.0709 162.315 91.8462C162.456 91.6216 162.529 91.3584 162.532 91.0568C162.529 90.7614 162.458 90.5028 162.319 90.2812C162.184 90.0597 161.995 89.8888 161.752 89.7688C161.508 89.6457 161.227 89.5842 160.907 89.5842C160.581 89.5842 160.294 89.6457 160.048 89.7688C159.805 89.8888 159.616 90.0597 159.48 90.2812C159.345 90.5028 159.279 90.7614 159.282 91.0568C159.279 91.3584 159.346 91.6216 159.485 91.8462C159.623 92.0709 159.814 92.2463 160.057 92.3725C160.304 92.4987 160.587 92.5618 160.907 92.5618ZM166.575 98.0877C166.322 98.0877 166.105 97.9985 165.924 97.82C165.742 97.6384 165.651 97.4199 165.651 97.1644C165.651 96.9121 165.742 96.6966 165.924 96.5181C166.105 96.3365 166.322 96.2457 166.575 96.2457C166.827 96.2457 167.044 96.3365 167.226 96.5181C167.407 96.6966 167.498 96.9121 167.498 97.1644C167.498 97.3337 167.455 97.4891 167.369 97.6307C167.286 97.7692 167.175 97.88 167.036 97.9631C166.898 98.0462 166.744 98.0877 166.575 98.0877ZM172.277 98.157C171.548 98.1539 170.925 97.9615 170.407 97.5799C169.89 97.1983 169.495 96.6428 169.221 95.9134C168.947 95.1839 168.81 94.3053 168.81 93.2773C168.81 92.2525 168.947 91.3769 169.221 90.6506C169.498 89.9242 169.895 89.3703 170.412 88.9886C170.932 88.607 171.554 88.4162 172.277 88.4162C173 88.4162 173.621 88.6085 174.138 88.9933C174.655 89.3749 175.05 89.9289 175.324 90.6552C175.601 91.3784 175.74 92.2525 175.74 93.2773C175.74 94.3084 175.603 95.1886 175.329 95.918C175.055 96.6443 174.659 97.1998 174.142 97.5845C173.625 97.9661 173.003 98.157 172.277 98.157ZM172.277 96.9244C172.917 96.9244 173.417 96.612 173.778 95.9872C174.141 95.3625 174.322 94.4592 174.322 93.2773C174.322 92.4925 174.239 91.8293 174.073 91.2876C173.91 90.7429 173.674 90.3305 173.367 90.0504C173.062 89.7673 172.699 89.6257 172.277 89.6257C171.64 89.6257 171.14 89.9396 170.777 90.5675C170.414 91.1953 170.231 92.0986 170.227 93.2773C170.227 94.0652 170.309 94.7315 170.472 95.2763C170.638 95.8179 170.874 96.2288 171.178 96.5089C171.483 96.7859 171.849 96.9244 172.277 96.9244ZM180.669 98.157C179.939 98.1539 179.316 97.9615 178.799 97.5799C178.282 97.1983 177.887 96.6428 177.613 95.9134C177.339 95.1839 177.202 94.3053 177.202 93.2773C177.202 92.2525 177.339 91.3769 177.613 90.6506C177.89 89.9242 178.287 89.3703 178.804 88.9886C179.324 88.607 179.946 88.4162 180.669 88.4162C181.392 88.4162 182.012 88.6085 182.529 88.9933C183.046 89.3749 183.442 89.9289 183.716 90.6552C183.993 91.3784 184.131 92.2525 184.131 93.2773C184.131 94.3084 183.994 95.1886 183.72 95.918C183.446 96.6443 183.051 97.1998 182.534 97.5845C182.017 97.9661 181.395 98.157 180.669 98.157ZM180.669 96.9244C181.309 96.9244 181.809 96.612 182.169 95.9872C182.532 95.3625 182.714 94.4592 182.714 93.2773C182.714 92.4925 182.631 91.8293 182.465 91.2876C182.301 90.7429 182.066 90.3305 181.758 90.0504C181.454 89.7673 181.09 89.6257 180.669 89.6257C180.032 89.6257 179.532 89.9396 179.168 90.5675C178.805 91.1953 178.622 92.0986 178.619 93.2773C178.619 94.0652 178.701 94.7315 178.864 95.2763C179.03 95.8179 179.265 96.2288 179.57 96.5089C179.875 96.7859 180.241 96.9244 180.669 96.9244ZM189.994 98.06C189.856 98.06 189.737 98.0123 189.639 97.9169C189.543 97.8184 189.495 97.6999 189.495 97.5614C189.495 97.426 189.543 97.3091 189.639 97.2106C189.737 97.1121 189.856 97.0629 189.994 97.0629C190.129 97.0629 190.246 97.1121 190.345 97.2106C190.443 97.3091 190.493 97.426 190.493 97.5614C190.493 97.6538 190.47 97.7384 190.423 97.8153C190.38 97.8892 190.32 97.9492 190.243 97.9954C190.169 98.0385 190.086 98.06 189.994 98.06ZM198.282 98L195.683 88.5455H196.283L198.591 97.109H198.646L200.918 88.5455H201.619L203.891 97.109H203.946L206.254 88.5455H206.85L204.251 98H203.586L201.292 89.4918H201.241L198.947 98H198.282ZM210.464 98.1477C209.823 98.1477 209.266 97.9892 208.792 97.6722C208.318 97.3552 207.952 96.9213 207.694 96.3704C207.435 95.8195 207.306 95.1916 207.306 94.4869C207.306 93.779 207.435 93.1481 207.694 92.5941C207.955 92.0401 208.314 91.6031 208.769 91.283C209.225 90.9629 209.745 90.8029 210.33 90.8029C210.727 90.8029 211.102 90.8829 211.456 91.043C211.813 91.1999 212.127 91.4277 212.398 91.7262C212.672 92.0247 212.886 92.3848 213.04 92.8065C213.196 93.2281 213.275 93.7021 213.275 94.2283V94.5792H207.661V94.0668H212.712C212.712 93.5528 212.607 93.0896 212.398 92.6772C212.189 92.2648 211.904 91.937 211.544 91.6939C211.184 91.4508 210.779 91.3292 210.33 91.3292C209.859 91.3292 209.439 91.4615 209.069 91.7262C208.703 91.9878 208.412 92.3417 208.197 92.788C207.984 93.2343 207.874 93.7328 207.864 94.2837V94.5146C207.864 95.1055 207.968 95.6364 208.174 96.1072C208.383 96.575 208.682 96.9459 209.069 97.2198C209.457 97.4906 209.922 97.6261 210.464 97.6261C210.851 97.6261 211.182 97.5614 211.456 97.4322C211.733 97.2998 211.959 97.1398 212.135 96.9521C212.31 96.7643 212.442 96.5827 212.532 96.4073L213.044 96.6151C212.936 96.852 212.769 97.089 212.541 97.326C212.316 97.5599 212.03 97.7553 211.682 97.9123C211.338 98.0692 210.931 98.1477 210.464 98.1477ZM215.759 88.5455V89.3764C215.759 89.6288 215.712 89.8981 215.62 90.1843C215.531 90.4674 215.399 90.7429 215.223 91.0107C215.051 91.2753 214.841 91.5062 214.595 91.7031L214.286 91.3938C214.557 91.1353 214.778 90.826 214.951 90.4659C215.126 90.1027 215.214 89.7411 215.214 89.381V88.5455H215.759ZM217.935 88.5455V98H217.372V88.5455H217.935ZM220.83 88.5455V98H220.267V88.5455H220.83ZM227.016 98V88.5455H227.574V92.4925H227.63C227.741 92.1879 227.898 91.9078 228.101 91.6523C228.304 91.3969 228.556 91.1922 228.858 91.0384C229.159 90.8814 229.512 90.8029 229.915 90.8029C230.484 90.8029 230.981 90.9614 231.406 91.2784C231.831 91.5923 232.16 92.0263 232.394 92.5803C232.628 93.1312 232.745 93.7621 232.745 94.473C232.745 95.1901 232.628 95.8256 232.394 96.3796C232.16 96.9305 231.832 97.3629 231.411 97.6768C230.989 97.9908 230.492 98.1477 229.92 98.1477C229.516 98.1477 229.164 98.0708 228.862 97.9169C228.561 97.7599 228.309 97.5537 228.105 97.2983C227.902 97.0398 227.744 96.7582 227.63 96.4535H227.565V98H227.016ZM227.57 94.4684C227.57 95.0716 227.661 95.6117 227.842 96.0888C228.027 96.5627 228.292 96.9382 228.636 97.2152C228.981 97.4891 229.393 97.6261 229.873 97.6261C230.36 97.6261 230.775 97.4876 231.12 97.2106C231.465 96.9305 231.728 96.552 231.909 96.0749C232.094 95.5979 232.186 95.0624 232.186 94.4684C232.186 93.8744 232.094 93.3404 231.909 92.8665C231.728 92.3925 231.465 92.0186 231.12 91.7447C230.775 91.4677 230.36 91.3292 229.873 91.3292C229.393 91.3292 228.981 91.4661 228.636 91.7401C228.292 92.0109 228.027 92.3833 227.842 92.8572C227.661 93.3281 227.57 93.8652 227.57 94.4684ZM239.231 95.484V90.9091H239.794V98H239.231V96.8505H239.185C239.019 97.2167 238.749 97.5153 238.377 97.7461C238.008 97.9769 237.571 98.0923 237.066 98.0923C236.601 98.0923 236.19 97.9908 235.833 97.7876C235.476 97.5845 235.196 97.2968 234.993 96.9244C234.79 96.5489 234.688 96.1026 234.688 95.5856V90.9091H235.252V95.5625C235.252 96.1534 235.43 96.632 235.787 96.9982C236.147 97.3614 236.612 97.543 237.181 97.543C237.551 97.543 237.891 97.4599 238.202 97.2937C238.512 97.1275 238.762 96.8905 238.949 96.5827C239.137 96.2719 239.231 95.9057 239.231 95.484ZM242.58 100.659C242.439 100.659 242.299 100.644 242.16 100.613C242.022 100.582 241.897 100.542 241.786 100.493L241.953 99.9989C242.242 100.11 242.503 100.15 242.737 100.119C242.974 100.088 243.184 99.9805 243.365 99.7958C243.547 99.6112 243.701 99.3403 243.827 98.9833L244.15 98.0969L241.551 90.9091H242.156L244.408 97.2752H244.455L246.707 90.9091H247.312L244.321 99.2049C244.207 99.525 244.064 99.7927 243.891 100.008C243.719 100.224 243.522 100.385 243.301 100.493C243.082 100.604 242.842 100.659 242.58 100.659ZM252.927 98V88.5455H253.486V92.4925H253.541C253.652 92.1879 253.809 91.9078 254.012 91.6523C254.215 91.3969 254.467 91.1922 254.769 91.0384C255.071 90.8814 255.423 90.8029 255.826 90.8029C256.396 90.8029 256.893 90.9614 257.317 91.2784C257.742 91.5923 258.071 92.0263 258.305 92.5803C258.539 93.1312 258.656 93.7621 258.656 94.473C258.656 95.1901 258.539 95.8256 258.305 96.3796C258.071 96.9305 257.744 97.3629 257.322 97.6768C256.9 97.9908 256.403 98.1477 255.831 98.1477C255.428 98.1477 255.075 98.0708 254.774 97.9169C254.472 97.7599 254.22 97.5537 254.017 97.2983C253.813 97.0398 253.655 96.7582 253.541 96.4535H253.476V98H252.927ZM253.481 94.4684C253.481 95.0716 253.572 95.6117 253.753 96.0888C253.938 96.5627 254.203 96.9382 254.547 97.2152C254.892 97.4891 255.305 97.6261 255.785 97.6261C256.271 97.6261 256.686 97.4876 257.031 97.2106C257.376 96.9305 257.639 96.552 257.82 96.0749C258.005 95.5979 258.097 95.0624 258.097 94.4684C258.097 93.8744 258.005 93.3404 257.82 92.8665C257.639 92.3925 257.376 92.0186 257.031 91.7447C256.686 91.4677 256.271 91.3292 255.785 91.3292C255.305 91.3292 254.892 91.4661 254.547 91.7401C254.203 92.0109 253.938 92.3833 253.753 92.8572C253.572 93.3281 253.481 93.8652 253.481 94.4684ZM262.479 98.1523C262.069 98.1523 261.694 98.0708 261.352 97.9077C261.014 97.7446 260.741 97.506 260.535 97.1921C260.332 96.8782 260.23 96.4966 260.23 96.0472C260.23 95.7518 260.283 95.4917 260.387 95.267C260.492 95.0424 260.653 94.8485 260.872 94.6854C261.09 94.5223 261.371 94.3884 261.712 94.2837C262.054 94.176 262.462 94.0929 262.936 94.0344C263.296 93.9914 263.617 93.9498 263.9 93.9098C264.184 93.8667 264.405 93.8005 264.565 93.7113C264.728 93.622 264.81 93.4866 264.81 93.305V93.0096C264.81 92.4925 264.647 92.0817 264.32 91.777C263.994 91.4723 263.545 91.32 262.972 91.32C262.465 91.32 262.037 91.4323 261.689 91.657C261.344 91.8786 261.103 92.1648 260.964 92.5156L260.433 92.3171C260.569 91.9786 260.764 91.697 261.02 91.4723C261.278 91.2476 261.574 91.0799 261.906 90.9691C262.242 90.8583 262.592 90.8029 262.959 90.8029C263.276 90.8029 263.577 90.8475 263.863 90.9368C264.153 91.026 264.41 91.1615 264.634 91.343C264.862 91.5246 265.042 91.757 265.175 92.0401C265.307 92.3202 265.373 92.6557 265.373 93.0465V98H264.81V96.7212H264.768C264.645 96.9859 264.476 97.2275 264.26 97.446C264.048 97.6615 263.791 97.8338 263.49 97.9631C263.191 98.0893 262.854 98.1523 262.479 98.1523ZM262.534 97.6307C262.977 97.6307 263.369 97.523 263.711 97.3075C264.056 97.089 264.325 96.7905 264.519 96.4119C264.713 96.0334 264.81 95.604 264.81 95.1239V94.0806C264.739 94.1422 264.636 94.1976 264.501 94.2468C264.368 94.293 264.217 94.3345 264.048 94.3714C263.882 94.4053 263.706 94.4361 263.522 94.4638C263.34 94.4884 263.163 94.5115 262.991 94.533C262.474 94.5946 262.052 94.69 261.726 94.8192C261.403 94.9454 261.166 95.1116 261.015 95.3178C260.867 95.524 260.794 95.7733 260.794 96.0657C260.794 96.5489 260.96 96.9305 261.292 97.2106C261.624 97.4906 262.038 97.6307 262.534 97.6307ZM270.393 98.1477C269.79 98.1477 269.259 97.9892 268.801 97.6722C268.342 97.3522 267.984 96.9151 267.725 96.3612C267.47 95.8072 267.342 95.1793 267.342 94.4776C267.342 93.7759 267.471 93.1481 267.73 92.5941C267.988 92.0401 268.347 91.6031 268.805 91.283C269.264 90.9629 269.792 90.8029 270.389 90.8029C270.838 90.8029 271.248 90.8952 271.617 91.0799C271.989 91.2646 272.297 91.5215 272.54 91.8509C272.786 92.1802 272.943 92.5618 273.011 92.9957H272.439C272.346 92.5156 272.115 92.1186 271.746 91.8047C271.38 91.4877 270.929 91.3292 270.393 91.3292C269.913 91.3292 269.486 91.4646 269.11 91.7354C268.735 92.0032 268.439 92.3741 268.224 92.848C268.008 93.3189 267.901 93.859 267.901 94.4684C267.901 95.0685 268.005 95.6071 268.214 96.0842C268.424 96.5581 268.716 96.9336 269.092 97.2106C269.467 97.4876 269.901 97.6261 270.393 97.6261C270.741 97.6261 271.058 97.5568 271.344 97.4183C271.634 97.2798 271.875 97.0829 272.069 96.8274C272.263 96.572 272.391 96.2734 272.452 95.9318H273.025C272.957 96.3688 272.803 96.7536 272.563 97.0859C272.323 97.4183 272.017 97.6784 271.645 97.8661C271.272 98.0539 270.855 98.1477 270.393 98.1477ZM275.435 95.2301L275.425 94.4222H275.573L279.119 90.9091H279.853L276.598 94.1406L276.543 94.1637L275.435 95.2301ZM274.945 98V88.5455H275.509V98H274.945ZM279.28 98L276.289 94.2191L276.695 93.8452L280 98H279.28ZM285.63 100.659C285.489 100.659 285.349 100.644 285.21 100.613C285.072 100.582 284.947 100.542 284.836 100.493L285.002 99.9989C285.292 100.11 285.553 100.15 285.787 100.119C286.024 100.088 286.233 99.9805 286.415 99.7958C286.597 99.6112 286.75 99.3403 286.877 98.9833L287.2 98.0969L284.601 90.9091H285.205L287.458 97.2752H287.504L289.757 90.9091H290.362L287.371 99.2049C287.257 99.525 287.114 99.7927 286.941 100.008C286.769 100.224 286.572 100.385 286.35 100.493C286.132 100.604 285.892 100.659 285.63 100.659ZM294.504 98.1477C293.919 98.1477 293.399 97.9908 292.944 97.6768C292.488 97.3598 292.13 96.9244 291.868 96.3704C291.607 95.8164 291.476 95.1855 291.476 94.4776C291.476 93.7667 291.607 93.1358 291.868 92.5849C292.13 92.0309 292.488 91.5954 292.944 91.2784C293.399 90.9614 293.919 90.8029 294.504 90.8029C295.089 90.8029 295.609 90.9614 296.065 91.2784C296.52 91.5954 296.879 92.0309 297.14 92.5849C297.402 93.1388 297.533 93.7698 297.533 94.4776C297.533 95.1855 297.402 95.8164 297.14 96.3704C296.879 96.9244 296.52 97.3598 296.065 97.6768C295.609 97.9908 295.089 98.1477 294.504 98.1477ZM294.504 97.6261C295 97.6261 295.432 97.486 295.801 97.206C296.174 96.9259 296.462 96.5473 296.665 96.0703C296.871 95.5933 296.974 95.0624 296.974 94.4776C296.974 93.8929 296.871 93.3635 296.665 92.8896C296.458 92.4125 296.171 92.034 295.801 91.7539C295.432 91.4708 295 91.3292 294.504 91.3292C294.009 91.3292 293.576 91.4708 293.207 91.7539C292.838 92.034 292.55 92.4125 292.344 92.8896C292.137 93.3635 292.034 93.8929 292.034 94.4776C292.034 95.0624 292.136 95.5933 292.339 96.0703C292.545 96.5473 292.833 96.9259 293.202 97.206C293.575 97.486 294.009 97.6261 294.504 97.6261ZM304.015 95.484V90.9091H304.578V98H304.015V96.8505H303.969C303.803 97.2167 303.534 97.5153 303.161 97.7461C302.792 97.9769 302.355 98.0923 301.85 98.0923C301.385 98.0923 300.975 97.9908 300.618 97.7876C300.261 97.5845 299.98 97.2968 299.777 96.9244C299.574 96.5489 299.473 96.1026 299.473 95.5856V90.9091H300.036V95.5625C300.036 96.1534 300.214 96.632 300.571 96.9982C300.931 97.3614 301.396 97.543 301.966 97.543C302.335 97.543 302.675 97.4599 302.986 97.2937C303.297 97.1275 303.546 96.8905 303.734 96.5827C303.921 96.2719 304.015 95.9057 304.015 95.484ZM306.912 98V90.9091H307.461V92.017H307.512C307.666 91.6539 307.926 91.363 308.292 91.1445C308.659 90.9229 309.076 90.8121 309.544 90.8121C309.593 90.8121 309.642 90.8121 309.691 90.8121C309.74 90.8121 309.787 90.8137 309.83 90.8168V91.3846C309.793 91.3815 309.748 91.3769 309.696 91.3707C309.647 91.3615 309.585 91.3569 309.511 91.3569C309.117 91.3569 308.766 91.4415 308.459 91.6108C308.154 91.7801 307.914 92.014 307.738 92.3125C307.563 92.608 307.475 92.9465 307.475 93.3281V98H306.912ZM28.804 114.148C28.2192 114.148 27.6991 113.991 27.2436 113.677C26.7881 113.36 26.4296 112.924 26.168 112.37C25.9064 111.816 25.7756 111.185 25.7756 110.478C25.7756 109.767 25.9064 109.136 26.168 108.585C26.4296 108.031 26.7881 107.595 27.2436 107.278C27.6991 106.961 28.2192 106.803 28.804 106.803C29.3887 106.803 29.9089 106.961 30.3643 107.278C30.8198 107.595 31.1784 108.031 31.44 108.585C31.7016 109.139 31.8324 109.77 31.8324 110.478C31.8324 111.185 31.7016 111.816 31.44 112.37C31.1784 112.924 30.8198 113.36 30.3643 113.677C29.9089 113.991 29.3887 114.148 28.804 114.148ZM28.804 113.626C29.2995 113.626 29.7319 113.486 30.1012 113.206C30.4736 112.926 30.7614 112.547 30.9645 112.07C31.1707 111.593 31.2738 111.062 31.2738 110.478C31.2738 109.893 31.1707 109.364 30.9645 108.89C30.7583 108.413 30.4705 108.034 30.1012 107.754C29.7319 107.471 29.2995 107.329 28.804 107.329C28.3085 107.329 27.8761 107.471 27.5067 107.754C27.1374 108.034 26.8497 108.413 26.6435 108.89C26.4373 109.364 26.3342 109.893 26.3342 110.478C26.3342 111.062 26.4357 111.593 26.6388 112.07C26.8451 112.547 27.1328 112.926 27.5021 113.206C27.8745 113.486 28.3085 113.626 28.804 113.626ZM34.3357 104.545V114H33.7725V104.545H34.3357ZM39.0999 114.148C38.5305 114.148 38.0335 113.991 37.6088 113.677C37.184 113.363 36.8547 112.931 36.6208 112.38C36.39 111.826 36.2746 111.19 36.2746 110.473C36.2746 109.762 36.3915 109.131 36.6254 108.58C36.8624 108.026 37.1933 107.592 37.618 107.278C38.0427 106.961 38.5382 106.803 39.1045 106.803C39.5107 106.803 39.8631 106.881 40.1617 107.038C40.4633 107.192 40.7156 107.397 40.9188 107.652C41.125 107.908 41.2819 108.188 41.3896 108.493H41.445V104.545H42.0036V114H41.4589V112.453H41.3896C41.2758 112.758 41.1173 113.04 40.9142 113.298C40.711 113.554 40.4587 113.76 40.157 113.917C39.8554 114.071 39.503 114.148 39.0999 114.148ZM39.1507 113.626C39.6308 113.626 40.0416 113.489 40.3833 113.215C40.728 112.938 40.9911 112.563 41.1727 112.089C41.3573 111.612 41.4497 111.072 41.4497 110.468C41.4497 109.865 41.3573 109.328 41.1727 108.857C40.9911 108.383 40.728 108.011 40.3833 107.74C40.0416 107.466 39.6308 107.329 39.1507 107.329C38.6644 107.329 38.2474 107.468 37.8996 107.745C37.5549 108.019 37.2902 108.393 37.1056 108.866C36.924 109.34 36.8332 109.874 36.8332 110.468C36.8332 111.062 36.924 111.598 37.1056 112.075C37.2902 112.552 37.5549 112.931 37.8996 113.211C38.2474 113.488 38.6644 113.626 39.1507 113.626ZM50.7011 106.909V107.412H47.6034V106.909H50.7011ZM48.6514 105.21H49.21V112.324C49.21 112.614 49.2654 112.85 49.3762 113.035C49.49 113.217 49.6378 113.352 49.8193 113.441C50.004 113.528 50.201 113.571 50.4102 113.571C50.5118 113.571 50.5995 113.563 50.6734 113.548C50.7503 113.532 50.8227 113.512 50.8904 113.488L51.0289 114C50.9427 114.031 50.8473 114.057 50.7426 114.078C50.638 114.103 50.5149 114.115 50.3733 114.115C50.0779 114.115 49.7978 114.049 49.5331 113.917C49.2715 113.785 49.0592 113.592 48.896 113.34C48.7329 113.087 48.6514 112.783 48.6514 112.426V105.21ZM55.4791 114.148C54.839 114.148 54.2819 113.989 53.808 113.672C53.334 113.355 52.9678 112.921 52.7093 112.37C52.4507 111.819 52.3215 111.192 52.3215 110.487C52.3215 109.779 52.4507 109.148 52.7093 108.594C52.9709 108.04 53.3294 107.603 53.7849 107.283C54.2404 106.963 54.7605 106.803 55.3453 106.803C55.7423 106.803 56.1177 106.883 56.4717 107.043C56.8287 107.2 57.1426 107.428 57.4134 107.726C57.6874 108.025 57.9012 108.385 58.0551 108.806C58.2121 109.228 58.2906 109.702 58.2906 110.228V110.579H52.6769V110.067H57.7274C57.7274 109.553 57.6227 109.09 57.4134 108.677C57.2042 108.265 56.9195 107.937 56.5594 107.694C56.1993 107.451 55.7946 107.329 55.3453 107.329C54.8744 107.329 54.4543 107.462 54.085 107.726C53.7187 107.988 53.4279 108.342 53.2124 108.788C53.0001 109.234 52.8893 109.733 52.8801 110.284V110.515C52.8801 111.105 52.9832 111.636 53.1894 112.107C53.3986 112.575 53.6972 112.946 54.085 113.22C54.4727 113.491 54.9375 113.626 55.4791 113.626C55.8669 113.626 56.1978 113.561 56.4717 113.432C56.7487 113.3 56.9749 113.14 57.1503 112.952C57.3257 112.764 57.4581 112.583 57.5473 112.407L58.0597 112.615C57.952 112.852 57.7843 113.089 57.5566 113.326C57.3319 113.56 57.0457 113.755 56.6979 113.912C56.3532 114.069 55.9469 114.148 55.4791 114.148ZM62.8886 114.148C62.2854 114.148 61.7545 113.989 61.2959 113.672C60.8373 113.352 60.4788 112.915 60.2203 112.361C59.9648 111.807 59.8371 111.179 59.8371 110.478C59.8371 109.776 59.9664 109.148 60.2249 108.594C60.4834 108.04 60.8419 107.603 61.3005 107.283C61.7591 106.963 62.2869 106.803 62.884 106.803C63.3333 106.803 63.7426 106.895 64.1119 107.08C64.4843 107.265 64.7921 107.522 65.0352 107.851C65.2815 108.18 65.4384 108.562 65.5061 108.996H64.9337C64.8414 108.516 64.6105 108.119 64.2412 107.805C63.875 107.488 63.4241 107.329 62.8886 107.329C62.4085 107.329 61.9807 107.465 61.6052 107.735C61.2297 108.003 60.9343 108.374 60.7188 108.848C60.5034 109.319 60.3957 109.859 60.3957 110.468C60.3957 111.069 60.5003 111.607 60.7096 112.084C60.9189 112.558 61.2113 112.934 61.5867 113.211C61.9622 113.488 62.3962 113.626 62.8886 113.626C63.2364 113.626 63.5534 113.557 63.8396 113.418C64.1289 113.28 64.3705 113.083 64.5644 112.827C64.7583 112.572 64.886 112.273 64.9475 111.932H65.52C65.4523 112.369 65.2984 112.754 65.0583 113.086C64.8183 113.418 64.512 113.678 64.1396 113.866C63.7673 114.054 63.3502 114.148 62.8886 114.148ZM68.0036 109.402V114H67.4404V104.545H68.0036V108.031H68.059C68.2252 107.662 68.4899 107.368 68.8531 107.149C69.2193 106.928 69.6579 106.817 70.1688 106.817C70.6458 106.817 71.0659 106.918 71.4291 107.121C71.7922 107.321 72.0754 107.609 72.2785 107.985C72.4847 108.357 72.5878 108.803 72.5878 109.324V114H72.0292V109.347C72.0292 108.74 71.8492 108.254 71.4891 107.888C71.129 107.522 70.6535 107.338 70.0626 107.338C69.6656 107.338 69.3116 107.425 69.0008 107.597C68.69 107.769 68.4453 108.011 68.2668 108.322C68.0914 108.629 68.0036 108.99 68.0036 109.402ZM81.2518 106.909V107.412H78.108V106.909H81.2518ZM79.142 114V105.806C79.142 105.449 79.2236 105.144 79.3867 104.892C79.5498 104.639 79.7637 104.447 80.0284 104.315C80.2962 104.182 80.5839 104.116 80.8917 104.116C81.0548 104.116 81.1933 104.13 81.3072 104.158C81.4241 104.182 81.5257 104.212 81.6119 104.245L81.4457 104.744C81.3749 104.719 81.2979 104.698 81.2148 104.679C81.1348 104.661 81.0394 104.652 80.9286 104.652C80.5716 104.652 80.2777 104.761 80.0469 104.979C79.8161 105.198 79.7006 105.503 79.7006 105.893L79.696 114H79.142ZM85.3489 114.148C84.7641 114.148 84.244 113.991 83.7885 113.677C83.333 113.36 82.9745 112.924 82.7129 112.37C82.4513 111.816 82.3205 111.185 82.3205 110.478C82.3205 109.767 82.4513 109.136 82.7129 108.585C82.9745 108.031 83.333 107.595 83.7885 107.278C84.244 106.961 84.7641 106.803 85.3489 106.803C85.9337 106.803 86.4538 106.961 86.9093 107.278C87.3648 107.595 87.7233 108.031 87.9849 108.585C88.2465 109.139 88.3773 109.77 88.3773 110.478C88.3773 111.185 88.2465 111.816 87.9849 112.37C87.7233 112.924 87.3648 113.36 86.9093 113.677C86.4538 113.991 85.9337 114.148 85.3489 114.148ZM85.3489 113.626C85.8444 113.626 86.2768 113.486 86.6461 113.206C87.0185 112.926 87.3063 112.547 87.5094 112.07C87.7156 111.593 87.8187 111.062 87.8187 110.478C87.8187 109.893 87.7156 109.364 87.5094 108.89C87.3032 108.413 87.0154 108.034 86.6461 107.754C86.2768 107.471 85.8444 107.329 85.3489 107.329C84.8534 107.329 84.421 107.471 84.0517 107.754C83.6824 108.034 83.3946 108.413 83.1884 108.89C82.9822 109.364 82.8791 109.893 82.8791 110.478C82.8791 111.062 82.9806 111.593 83.1838 112.07C83.39 112.547 83.6777 112.926 84.0471 113.206C84.4194 113.486 84.8534 113.626 85.3489 113.626ZM90.3174 114V106.909H90.8667V108.017H90.9175C91.0714 107.654 91.3315 107.363 91.6977 107.145C92.064 106.923 92.481 106.812 92.9488 106.812C92.998 106.812 93.0473 106.812 93.0965 106.812C93.1457 106.812 93.1919 106.814 93.235 106.817V107.385C93.1981 107.382 93.1534 107.377 93.1011 107.371C93.0519 107.362 92.9903 107.357 92.9165 107.357C92.5225 107.357 92.1717 107.442 91.8639 107.611C91.5592 107.78 91.3192 108.014 91.1437 108.312C90.9683 108.608 90.8806 108.946 90.8806 109.328V114H90.3174ZM101.063 114.148C100.46 114.148 99.9293 113.989 99.4707 113.672C99.0121 113.352 98.6536 112.915 98.3951 112.361C98.1396 111.807 98.0119 111.179 98.0119 110.478C98.0119 109.776 98.1412 109.148 98.3997 108.594C98.6582 108.04 99.0167 107.603 99.4753 107.283C99.9339 106.963 100.462 106.803 101.059 106.803C101.508 106.803 101.917 106.895 102.287 107.08C102.659 107.265 102.967 107.522 103.21 107.851C103.456 108.18 103.613 108.562 103.681 108.996H103.108C103.016 108.516 102.785 108.119 102.416 107.805C102.05 107.488 101.599 107.329 101.063 107.329C100.583 107.329 100.155 107.465 99.78 107.735C99.4045 108.003 99.1091 108.374 98.8936 108.848C98.6782 109.319 98.5705 109.859 98.5705 110.468C98.5705 111.069 98.6751 111.607 98.8844 112.084C99.0937 112.558 99.3861 112.934 99.7615 113.211C100.137 113.488 100.571 113.626 101.063 113.626C101.411 113.626 101.728 113.557 102.014 113.418C102.304 113.28 102.545 113.083 102.739 112.827C102.933 112.572 103.061 112.273 103.122 111.932H103.695C103.627 112.369 103.473 112.754 103.233 113.086C102.993 113.418 102.687 113.678 102.314 113.866C101.942 114.054 101.525 114.148 101.063 114.148ZM107.494 114.152C107.085 114.152 106.709 114.071 106.368 113.908C106.029 113.745 105.757 113.506 105.551 113.192C105.347 112.878 105.246 112.497 105.246 112.047C105.246 111.752 105.298 111.492 105.403 111.267C105.508 111.042 105.669 110.848 105.888 110.685C106.106 110.522 106.386 110.388 106.728 110.284C107.069 110.176 107.477 110.093 107.951 110.034C108.311 109.991 108.633 109.95 108.916 109.91C109.199 109.867 109.421 109.801 109.581 109.711C109.744 109.622 109.825 109.487 109.825 109.305V109.01C109.825 108.493 109.662 108.082 109.336 107.777C109.01 107.472 108.561 107.32 107.988 107.32C107.48 107.32 107.052 107.432 106.705 107.657C106.36 107.879 106.118 108.165 105.98 108.516L105.449 108.317C105.584 107.979 105.78 107.697 106.035 107.472C106.294 107.248 106.589 107.08 106.922 106.969C107.257 106.858 107.608 106.803 107.974 106.803C108.291 106.803 108.593 106.848 108.879 106.937C109.168 107.026 109.425 107.161 109.65 107.343C109.878 107.525 110.058 107.757 110.19 108.04C110.323 108.32 110.389 108.656 110.389 109.047V114H109.825V112.721H109.784C109.661 112.986 109.492 113.228 109.276 113.446C109.064 113.661 108.807 113.834 108.505 113.963C108.207 114.089 107.87 114.152 107.494 114.152ZM107.55 113.631C107.993 113.631 108.385 113.523 108.727 113.308C109.071 113.089 109.341 112.79 109.535 112.412C109.729 112.033 109.825 111.604 109.825 111.124V110.081C109.755 110.142 109.652 110.198 109.516 110.247C109.384 110.293 109.233 110.335 109.064 110.371C108.898 110.405 108.722 110.436 108.537 110.464C108.356 110.488 108.179 110.511 108.007 110.533C107.49 110.595 107.068 110.69 106.742 110.819C106.419 110.945 106.182 111.112 106.031 111.318C105.883 111.524 105.809 111.773 105.809 112.066C105.809 112.549 105.975 112.931 106.308 113.211C106.64 113.491 107.054 113.631 107.55 113.631ZM117.256 108.437L116.734 108.576C116.651 108.317 116.532 108.094 116.379 107.906C116.225 107.719 116.031 107.574 115.797 107.472C115.566 107.368 115.289 107.315 114.966 107.315C114.446 107.315 114.02 107.445 113.687 107.703C113.358 107.962 113.193 108.299 113.193 108.714C113.193 109.053 113.306 109.333 113.53 109.554C113.755 109.773 114.098 109.939 114.56 110.053L115.649 110.325C116.209 110.464 116.631 110.688 116.914 110.999C117.197 111.307 117.339 111.69 117.339 112.149C117.339 112.54 117.233 112.886 117.02 113.188C116.808 113.489 116.514 113.725 116.138 113.894C115.766 114.063 115.332 114.148 114.837 114.148C114.175 114.148 113.632 113.994 113.207 113.686C112.782 113.375 112.51 112.931 112.39 112.352L112.93 112.213C113.032 112.675 113.242 113.027 113.562 113.271C113.886 113.511 114.309 113.631 114.832 113.631C115.411 113.631 115.877 113.494 116.231 113.22C116.588 112.946 116.766 112.595 116.766 112.167C116.766 111.841 116.662 111.566 116.452 111.341C116.243 111.116 115.926 110.952 115.501 110.847L114.37 110.57C113.792 110.428 113.358 110.202 113.069 109.891C112.779 109.577 112.635 109.191 112.635 108.733C112.635 108.351 112.735 108.016 112.935 107.726C113.135 107.437 113.41 107.211 113.761 107.048C114.112 106.884 114.513 106.803 114.966 106.803C115.566 106.803 116.055 106.944 116.434 107.228C116.813 107.511 117.086 107.914 117.256 108.437ZM119.851 109.402V114H119.288V104.545H119.851V108.031H119.907C120.073 107.662 120.338 107.368 120.701 107.149C121.067 106.928 121.506 106.817 122.016 106.817C122.493 106.817 122.914 106.918 123.277 107.121C123.64 107.321 123.923 107.609 124.126 107.985C124.332 108.357 124.435 108.803 124.435 109.324V114H123.877V109.347C123.877 108.74 123.697 108.254 123.337 107.888C122.977 107.522 122.501 107.338 121.91 107.338C121.513 107.338 121.159 107.425 120.848 107.597C120.538 107.769 120.293 108.011 120.114 108.322C119.939 108.629 119.851 108.99 119.851 109.402ZM127.292 114.06C127.153 114.06 127.035 114.012 126.936 113.917C126.841 113.818 126.793 113.7 126.793 113.561C126.793 113.426 126.841 113.309 126.936 113.211C127.035 113.112 127.153 113.063 127.292 113.063C127.427 113.063 127.544 113.112 127.643 113.211C127.741 113.309 127.79 113.426 127.79 113.561C127.79 113.654 127.767 113.738 127.721 113.815C127.678 113.889 127.618 113.949 127.541 113.995C127.467 114.038 127.384 114.06 127.292 114.06Z" fill="#111111"/>
<rect x="0.5" y="0.5" width="559" height="141" rx="7.5" stroke="#E5E5E5"/>
<defs>
<clipPath id="clip0_509_395">
<rect width="24" height="24" fill="white" transform="translate(37 37)"/>
</clipPath>
<clipPath id="clip1_509_395">
<rect width="24" height="24" fill="white" transform="translate(515 37)"/>
</clipPath>
</defs>
</svg>
