<?xml version="1.0" standalone="no"?>
<!DOCTYPE svg PUBLIC "-//W3C//DTD SVG 20010904//EN"
 "http://www.w3.org/TR/2001/REC-SVG-20010904/DTD/svg10.dtd">
<svg version="1.0" xmlns="http://www.w3.org/2000/svg"
 width="2000.000000pt" height="2000.000000pt" viewBox="0 0 2000.000000 2000.000000"
 preserveAspectRatio="xMidYMid meet">
<metadata>
Created by potrace 1.14, written by Peter Selinger 2001-2017
</metadata>
<g transform="translate(0.000000,2000.000000) scale(0.100000,-0.100000)"
fill="#000000" stroke="none">
<path d="M9875 19710 c-191 -20 -386 -90 -536 -193 -68 -46 -8036 -5834 -8154
-5923 -233 -174 -390 -418 -457 -706 -29 -126 -31 -375 -4 -493 10 -44 722
-2247 1582 -4895 1116 -3435 1577 -4842 1609 -4908 165 -343 466 -577 845
-659 82 -17 285 -18 5250 -18 l5165 0 110 29 c367 95 641 317 800 648 32 66
492 1469 1604 4893 858 2640 1566 4827 1575 4860 56 223 42 487 -38 699 -64
170 -160 317 -288 443 -52 53 -1225 910 -4188 3063 -4414 3207 -4201 3056
-4404 3114 -153 45 -325 61 -471 46z"/>
</g>
</svg>
